<?xml version="1.0" encoding="UTF-8"?>
<svg height="128px" viewBox="0 0 128 128" width="128px" xmlns="http://www.w3.org/2000/svg" xmlns:xlink="http://www.w3.org/1999/xlink">
    <filter id="a" height="100%" width="100%" x="0%" y="0%">
        <feColorMatrix color-interpolation-filters="sRGB" values="0 0 0 0 1 0 0 0 0 1 0 0 0 0 1 0 0 0 1 0"/>
    </filter>
    <clipPath id="b">
        <path d="m 21 19 h 85 v 95 h -85 z m 0 0"/>
    </clipPath>
    <clipPath id="c">
        <path d="m 30.335938 19.9375 c -0.027344 0 -0.054688 0 -0.085938 0 h -9.195312 v 93.53125 h 8.789062 c 1.816406 0.109375 3.625 -0.3125 5.203125 -1.214844 l 65.460937 -37.414062 c 2.933594 -1.660156 4.742188 -4.769532 4.742188 -8.136719 s -1.808594 -6.476563 -4.742188 -8.136719 l -65.460937 -37.414062 c -1.359375 -0.769532 -2.890625 -1.1875 -4.453125 -1.214844 c -0.085938 0 -0.171875 0 -0.257812 0 z m 0 0"/>
    </clipPath>
    <clipPath id="d">
        <path d="m 32 35 h 1 v 1 h -1 z m 0 0"/>
    </clipPath>
    <clipPath id="e">
        <path d="m 30.335938 19.9375 c -0.027344 0 -0.054688 0 -0.085938 0 h -9.195312 v 93.53125 h 8.789062 c 1.816406 0.109375 3.625 -0.3125 5.203125 -1.214844 l 65.460937 -37.414062 c 2.933594 -1.660156 4.742188 -4.769532 4.742188 -8.136719 s -1.808594 -6.476563 -4.742188 -8.136719 l -65.460937 -37.414062 c -1.359375 -0.769532 -2.890625 -1.1875 -4.453125 -1.214844 c -0.085938 0 -0.171875 0 -0.257812 0 z m 0 0"/>
    </clipPath>
    <clipPath id="f">
        <path d="m 31 34 h 1 v 2 h -1 z m 0 0"/>
    </clipPath>
    <clipPath id="g">
        <path d="m 30.335938 19.9375 c -0.027344 0 -0.054688 0 -0.085938 0 h -9.195312 v 93.53125 h 8.789062 c 1.816406 0.109375 3.625 -0.3125 5.203125 -1.214844 l 65.460937 -37.414062 c 2.933594 -1.660156 4.742188 -4.769532 4.742188 -8.136719 s -1.808594 -6.476563 -4.742188 -8.136719 l -65.460937 -37.414062 c -1.359375 -0.769532 -2.890625 -1.1875 -4.453125 -1.214844 c -0.085938 0 -0.171875 0 -0.257812 0 z m 0 0"/>
    </clipPath>
    <clipPath id="h">
        <path d="m 21 19 h 75 v 95 h -75 z m 0 0"/>
    </clipPath>
    <clipPath id="i">
        <path d="m 30.335938 19.9375 c -0.027344 0 -0.054688 0 -0.085938 0 h -9.195312 v 93.53125 h 8.789062 c 1.816406 0.109375 3.625 -0.3125 5.203125 -1.214844 l 65.460937 -37.414062 c 2.933594 -1.660156 4.742188 -4.769532 4.742188 -8.136719 s -1.808594 -6.476563 -4.742188 -8.136719 l -65.460937 -37.414062 c -1.359375 -0.769532 -2.890625 -1.1875 -4.453125 -1.214844 c -0.085938 0 -0.171875 0 -0.257812 0 z m 0 0"/>
    </clipPath>
    <clipPath id="j">
        <path d="m 75 32 h 31 v 78 h -31 z m 0 0"/>
    </clipPath>
    <clipPath id="k">
        <path d="m 30.335938 19.9375 c -0.027344 0 -0.054688 0 -0.085938 0 h -9.195312 v 93.53125 h 8.789062 c 1.816406 0.109375 3.625 -0.3125 5.203125 -1.214844 l 65.460937 -37.414062 c 2.933594 -1.660156 4.742188 -4.769532 4.742188 -8.136719 s -1.808594 -6.476563 -4.742188 -8.136719 l -65.460937 -37.414062 c -1.359375 -0.769532 -2.890625 -1.1875 -4.453125 -1.214844 c -0.085938 0 -0.171875 0 -0.257812 0 z m 0 0"/>
    </clipPath>
    <clipPath id="l">
        <path d="m 21 24 h 45 v 65 h -45 z m 0 0"/>
    </clipPath>
    <clipPath id="m">
        <path d="m 30.335938 19.9375 c -0.027344 0 -0.054688 0 -0.085938 0 h -9.195312 v 93.53125 h 8.789062 c 1.816406 0.109375 3.625 -0.3125 5.203125 -1.214844 l 65.460937 -37.414062 c 2.933594 -1.660156 4.742188 -4.769532 4.742188 -8.136719 s -1.808594 -6.476563 -4.742188 -8.136719 l -65.460937 -37.414062 c -1.359375 -0.769532 -2.890625 -1.1875 -4.453125 -1.214844 c -0.085938 0 -0.171875 0 -0.257812 0 z m 0 0"/>
    </clipPath>
    <clipPath id="n">
        <path d="m 21 19 h 85 v 38 h -85 z m 0 0"/>
    </clipPath>
    <clipPath id="o">
        <path d="m 30.335938 19.9375 c -0.027344 0 -0.054688 0 -0.085938 0 h -9.195312 v 93.53125 h 8.789062 c 1.816406 0.109375 3.625 -0.3125 5.203125 -1.214844 l 65.460937 -37.414062 c 2.933594 -1.660156 4.742188 -4.769532 4.742188 -8.136719 s -1.808594 -6.476563 -4.742188 -8.136719 l -65.460937 -37.414062 c -1.359375 -0.769532 -2.890625 -1.1875 -4.453125 -1.214844 c -0.085938 0 -0.171875 0 -0.257812 0 z m 0 0"/>
    </clipPath>
    <clipPath id="p">
        <path d="m 21 68 h 22 v 46 h -22 z m 0 0"/>
    </clipPath>
    <clipPath id="q">
        <path d="m 30.335938 19.9375 c -0.027344 0 -0.054688 0 -0.085938 0 h -9.195312 v 93.53125 h 8.789062 c 1.816406 0.109375 3.625 -0.3125 5.203125 -1.214844 l 65.460937 -37.414062 c 2.933594 -1.660156 4.742188 -4.769532 4.742188 -8.136719 s -1.808594 -6.476563 -4.742188 -8.136719 l -65.460937 -37.414062 c -1.359375 -0.769532 -2.890625 -1.1875 -4.453125 -1.214844 c -0.085938 0 -0.171875 0 -0.257812 0 z m 0 0"/>
    </clipPath>
    <clipPath id="r">
        <path d="m 52 88 h 27 v 26 h -27 z m 0 0"/>
    </clipPath>
    <clipPath id="s">
        <path d="m 30.335938 19.9375 c -0.027344 0 -0.054688 0 -0.085938 0 h -9.195312 v 93.53125 h 8.789062 c 1.816406 0.109375 3.625 -0.3125 5.203125 -1.214844 l 65.460937 -37.414062 c 2.933594 -1.660156 4.742188 -4.769532 4.742188 -8.136719 s -1.808594 -6.476563 -4.742188 -8.136719 l -65.460937 -37.414062 c -1.359375 -0.769532 -2.890625 -1.1875 -4.453125 -1.214844 c -0.085938 0 -0.171875 0 -0.257812 0 z m 0 0"/>
    </clipPath>
    <clipPath id="t">
        <path d="m 66 61 h 10 v 14 h -10 z m 0 0"/>
    </clipPath>
    <clipPath id="u">
        <path d="m 30.335938 19.9375 c -0.027344 0 -0.054688 0 -0.085938 0 h -9.195312 v 93.53125 h 8.789062 c 1.816406 0.109375 3.625 -0.3125 5.203125 -1.214844 l 65.460937 -37.414062 c 2.933594 -1.660156 4.742188 -4.769532 4.742188 -8.136719 s -1.808594 -6.476563 -4.742188 -8.136719 l -65.460937 -37.414062 c -1.359375 -0.769532 -2.890625 -1.1875 -4.453125 -1.214844 c -0.085938 0 -0.171875 0 -0.257812 0 z m 0 0"/>
    </clipPath>
    <clipPath id="v">
        <path d="m 24 33 h 20 v 19 h -20 z m 0 0"/>
    </clipPath>
    <clipPath id="w">
        <path d="m 30.335938 19.9375 c -0.027344 0 -0.054688 0 -0.085938 0 h -9.195312 v 93.53125 h 8.789062 c 1.816406 0.109375 3.625 -0.3125 5.203125 -1.214844 l 65.460937 -37.414062 c 2.933594 -1.660156 4.742188 -4.769532 4.742188 -8.136719 s -1.808594 -6.476563 -4.742188 -8.136719 l -65.460937 -37.414062 c -1.359375 -0.769532 -2.890625 -1.1875 -4.453125 -1.214844 c -0.085938 0 -0.171875 0 -0.257812 0 z m 0 0"/>
    </clipPath>
    <clipPath id="x">
        <path d="m 20 19 h 85 v 94 h -85 z m 0 0"/>
    </clipPath>
    <clipPath id="y">
        <path d="m 29.777344 19.140625 c -0.027344 0 -0.058594 0 -0.085938 0.003906 h -9.199218 v 93.527344 h 8.792968 c 1.816406 0.109375 3.621094 -0.3125 5.199219 -1.214844 l 65.464844 -37.414062 c 2.929687 -1.660157 4.742187 -4.765625 4.742187 -8.136719 c 0 -3.367188 -1.8125 -6.476562 -4.742187 -8.136719 l -65.464844 -37.414062 c -1.355469 -0.769531 -2.886719 -1.1875 -4.449219 -1.210938 c -0.085937 -0.003906 -0.171875 -0.003906 -0.257812 -0.003906 z m 0 0"/>
    </clipPath>
    <clipPath id="z">
        <path d="m 31 34 h 1 v 1 h -1 z m 0 0"/>
    </clipPath>
    <clipPath id="A">
        <path d="m 29.777344 19.140625 c -0.027344 0 -0.058594 0 -0.085938 0.003906 h -9.199218 v 93.527344 h 8.792968 c 1.816406 0.109375 3.621094 -0.3125 5.199219 -1.214844 l 65.464844 -37.414062 c 2.929687 -1.660157 4.742187 -4.765625 4.742187 -8.136719 c 0 -3.367188 -1.8125 -6.476562 -4.742187 -8.136719 l -65.464844 -37.414062 c -1.355469 -0.769531 -2.886719 -1.1875 -4.449219 -1.210938 c -0.085937 -0.003906 -0.171875 -0.003906 -0.257812 -0.003906 z m 0 0"/>
    </clipPath>
    <clipPath id="B">
        <path d="m 20 19 h 76 v 94 h -76 z m 0 0"/>
    </clipPath>
    <clipPath id="C">
        <path d="m 29.777344 19.140625 c -0.027344 0 -0.058594 0 -0.085938 0.003906 h -9.199218 v 93.527344 h 8.792968 c 1.816406 0.109375 3.621094 -0.3125 5.199219 -1.214844 l 65.464844 -37.414062 c 2.929687 -1.660157 4.742187 -4.765625 4.742187 -8.136719 c 0 -3.367188 -1.8125 -6.476562 -4.742187 -8.136719 l -65.464844 -37.414062 c -1.355469 -0.769531 -2.886719 -1.1875 -4.449219 -1.210938 c -0.085937 -0.003906 -0.171875 -0.003906 -0.257812 -0.003906 z m 0 0"/>
    </clipPath>
    <clipPath id="D">
        <path d="m 75 31 h 30 v 78 h -30 z m 0 0"/>
    </clipPath>
    <clipPath id="E">
        <path d="m 29.777344 19.140625 c -0.027344 0 -0.058594 0 -0.085938 0.003906 h -9.199218 v 93.527344 h 8.792968 c 1.816406 0.109375 3.621094 -0.3125 5.199219 -1.214844 l 65.464844 -37.414062 c 2.929687 -1.660157 4.742187 -4.765625 4.742187 -8.136719 c 0 -3.367188 -1.8125 -6.476562 -4.742187 -8.136719 l -65.464844 -37.414062 c -1.355469 -0.769531 -2.886719 -1.1875 -4.449219 -1.210938 c -0.085937 -0.003906 -0.171875 -0.003906 -0.257812 -0.003906 z m 0 0"/>
    </clipPath>
    <clipPath id="F">
        <path d="m 20 23 h 45 v 66 h -45 z m 0 0"/>
    </clipPath>
    <clipPath id="G">
        <path d="m 29.777344 19.140625 c -0.027344 0 -0.058594 0 -0.085938 0.003906 h -9.199218 v 93.527344 h 8.792968 c 1.816406 0.109375 3.621094 -0.3125 5.199219 -1.214844 l 65.464844 -37.414062 c 2.929687 -1.660157 4.742187 -4.765625 4.742187 -8.136719 c 0 -3.367188 -1.8125 -6.476562 -4.742187 -8.136719 l -65.464844 -37.414062 c -1.355469 -0.769531 -2.886719 -1.1875 -4.449219 -1.210938 c -0.085937 -0.003906 -0.171875 -0.003906 -0.257812 -0.003906 z m 0 0"/>
    </clipPath>
    <clipPath id="H">
        <path d="m 20 19 h 85 v 37 h -85 z m 0 0"/>
    </clipPath>
    <clipPath id="I">
        <path d="m 29.777344 19.140625 c -0.027344 0 -0.058594 0 -0.085938 0.003906 h -9.199218 v 93.527344 h 8.792968 c 1.816406 0.109375 3.621094 -0.3125 5.199219 -1.214844 l 65.464844 -37.414062 c 2.929687 -1.660157 4.742187 -4.765625 4.742187 -8.136719 c 0 -3.367188 -1.8125 -6.476562 -4.742187 -8.136719 l -65.464844 -37.414062 c -1.355469 -0.769531 -2.886719 -1.1875 -4.449219 -1.210938 c -0.085937 -0.003906 -0.171875 -0.003906 -0.257812 -0.003906 z m 0 0"/>
    </clipPath>
    <clipPath id="J">
        <path d="m 20 67 h 23 v 46 h -23 z m 0 0"/>
    </clipPath>
    <clipPath id="K">
        <path d="m 29.777344 19.140625 c -0.027344 0 -0.058594 0 -0.085938 0.003906 h -9.199218 v 93.527344 h 8.792968 c 1.816406 0.109375 3.621094 -0.3125 5.199219 -1.214844 l 65.464844 -37.414062 c 2.929687 -1.660157 4.742187 -4.765625 4.742187 -8.136719 c 0 -3.367188 -1.8125 -6.476562 -4.742187 -8.136719 l -65.464844 -37.414062 c -1.355469 -0.769531 -2.886719 -1.1875 -4.449219 -1.210938 c -0.085937 -0.003906 -0.171875 -0.003906 -0.257812 -0.003906 z m 0 0"/>
    </clipPath>
    <clipPath id="L">
        <path d="m 52 88 h 26 v 25 h -26 z m 0 0"/>
    </clipPath>
    <clipPath id="M">
        <path d="m 29.777344 19.140625 c -0.027344 0 -0.058594 0 -0.085938 0.003906 h -9.199218 v 93.527344 h 8.792968 c 1.816406 0.109375 3.621094 -0.3125 5.199219 -1.214844 l 65.464844 -37.414062 c 2.929687 -1.660157 4.742187 -4.765625 4.742187 -8.136719 c 0 -3.367188 -1.8125 -6.476562 -4.742187 -8.136719 l -65.464844 -37.414062 c -1.355469 -0.769531 -2.886719 -1.1875 -4.449219 -1.210938 c -0.085937 -0.003906 -0.171875 -0.003906 -0.257812 -0.003906 z m 0 0"/>
    </clipPath>
    <clipPath id="N">
        <path d="m 65 60 h 11 v 14 h -11 z m 0 0"/>
    </clipPath>
    <clipPath id="O">
        <path d="m 29.777344 19.140625 c -0.027344 0 -0.058594 0 -0.085938 0.003906 h -9.199218 v 93.527344 h 8.792968 c 1.816406 0.109375 3.621094 -0.3125 5.199219 -1.214844 l 65.464844 -37.414062 c 2.929687 -1.660157 4.742187 -4.765625 4.742187 -8.136719 c 0 -3.367188 -1.8125 -6.476562 -4.742187 -8.136719 l -65.464844 -37.414062 c -1.355469 -0.769531 -2.886719 -1.1875 -4.449219 -1.210938 c -0.085937 -0.003906 -0.171875 -0.003906 -0.257812 -0.003906 z m 0 0"/>
    </clipPath>
    <clipPath id="P">
        <path d="m 23 32 h 21 v 19 h -21 z m 0 0"/>
    </clipPath>
    <clipPath id="Q">
        <path d="m 29.777344 19.140625 c -0.027344 0 -0.058594 0 -0.085938 0.003906 h -9.199218 v 93.527344 h 8.792968 c 1.816406 0.109375 3.621094 -0.3125 5.199219 -1.214844 l 65.464844 -37.414062 c 2.929687 -1.660157 4.742187 -4.765625 4.742187 -8.136719 c 0 -3.367188 -1.8125 -6.476562 -4.742187 -8.136719 l -65.464844 -37.414062 c -1.355469 -0.769531 -2.886719 -1.1875 -4.449219 -1.210938 c -0.085937 -0.003906 -0.171875 -0.003906 -0.257812 -0.003906 z m 0 0"/>
    </clipPath>
    <clipPath id="R">
        <path d="m 21 19 h 85 v 95 h -85 z m 0 0"/>
    </clipPath>
    <clipPath id="S">
        <path d="m 30.335938 19.9375 c -0.027344 0 -0.054688 0 -0.085938 0 h -9.195312 v 93.53125 h 8.789062 c 1.816406 0.109375 3.625 -0.3125 5.203125 -1.214844 l 65.460937 -37.414062 c 2.933594 -1.660156 4.742188 -4.769532 4.742188 -8.136719 s -1.808594 -6.476563 -4.742188 -8.136719 l -65.460937 -37.414062 c -1.359375 -0.769532 -2.890625 -1.1875 -4.453125 -1.214844 c -0.085938 0 -0.171875 0 -0.257812 0 z m 0 0"/>
    </clipPath>
    <clipPath id="T">
        <path d="m 32 35 h 1 v 1 h -1 z m 0 0"/>
    </clipPath>
    <clipPath id="U">
        <path d="m 30.335938 19.9375 c -0.027344 0 -0.054688 0 -0.085938 0 h -9.195312 v 93.53125 h 8.789062 c 1.816406 0.109375 3.625 -0.3125 5.203125 -1.214844 l 65.460937 -37.414062 c 2.933594 -1.660156 4.742188 -4.769532 4.742188 -8.136719 s -1.808594 -6.476563 -4.742188 -8.136719 l -65.460937 -37.414062 c -1.359375 -0.769532 -2.890625 -1.1875 -4.453125 -1.214844 c -0.085938 0 -0.171875 0 -0.257812 0 z m 0 0"/>
    </clipPath>
    <clipPath id="V">
        <path d="m 31 34 h 1 v 2 h -1 z m 0 0"/>
    </clipPath>
    <clipPath id="W">
        <path d="m 30.335938 19.9375 c -0.027344 0 -0.054688 0 -0.085938 0 h -9.195312 v 93.53125 h 8.789062 c 1.816406 0.109375 3.625 -0.3125 5.203125 -1.214844 l 65.460937 -37.414062 c 2.933594 -1.660156 4.742188 -4.769532 4.742188 -8.136719 s -1.808594 -6.476563 -4.742188 -8.136719 l -65.460937 -37.414062 c -1.359375 -0.769532 -2.890625 -1.1875 -4.453125 -1.214844 c -0.085938 0 -0.171875 0 -0.257812 0 z m 0 0"/>
    </clipPath>
    <clipPath id="X">
        <path d="m 21 19 h 75 v 95 h -75 z m 0 0"/>
    </clipPath>
    <clipPath id="Y">
        <path d="m 30.335938 19.9375 c -0.027344 0 -0.054688 0 -0.085938 0 h -9.195312 v 93.53125 h 8.789062 c 1.816406 0.109375 3.625 -0.3125 5.203125 -1.214844 l 65.460937 -37.414062 c 2.933594 -1.660156 4.742188 -4.769532 4.742188 -8.136719 s -1.808594 -6.476563 -4.742188 -8.136719 l -65.460937 -37.414062 c -1.359375 -0.769532 -2.890625 -1.1875 -4.453125 -1.214844 c -0.085938 0 -0.171875 0 -0.257812 0 z m 0 0"/>
    </clipPath>
    <clipPath id="Z">
        <path d="m 75 32 h 31 v 78 h -31 z m 0 0"/>
    </clipPath>
    <clipPath id="aa">
        <path d="m 30.335938 19.9375 c -0.027344 0 -0.054688 0 -0.085938 0 h -9.195312 v 93.53125 h 8.789062 c 1.816406 0.109375 3.625 -0.3125 5.203125 -1.214844 l 65.460937 -37.414062 c 2.933594 -1.660156 4.742188 -4.769532 4.742188 -8.136719 s -1.808594 -6.476563 -4.742188 -8.136719 l -65.460937 -37.414062 c -1.359375 -0.769532 -2.890625 -1.1875 -4.453125 -1.214844 c -0.085938 0 -0.171875 0 -0.257812 0 z m 0 0"/>
    </clipPath>
    <clipPath id="ab">
        <path d="m 21 24 h 45 v 65 h -45 z m 0 0"/>
    </clipPath>
    <clipPath id="ac">
        <path d="m 30.335938 19.9375 c -0.027344 0 -0.054688 0 -0.085938 0 h -9.195312 v 93.53125 h 8.789062 c 1.816406 0.109375 3.625 -0.3125 5.203125 -1.214844 l 65.460937 -37.414062 c 2.933594 -1.660156 4.742188 -4.769532 4.742188 -8.136719 s -1.808594 -6.476563 -4.742188 -8.136719 l -65.460937 -37.414062 c -1.359375 -0.769532 -2.890625 -1.1875 -4.453125 -1.214844 c -0.085938 0 -0.171875 0 -0.257812 0 z m 0 0"/>
    </clipPath>
    <clipPath id="ad">
        <path d="m 21 19 h 85 v 38 h -85 z m 0 0"/>
    </clipPath>
    <clipPath id="ae">
        <path d="m 30.335938 19.9375 c -0.027344 0 -0.054688 0 -0.085938 0 h -9.195312 v 93.53125 h 8.789062 c 1.816406 0.109375 3.625 -0.3125 5.203125 -1.214844 l 65.460937 -37.414062 c 2.933594 -1.660156 4.742188 -4.769532 4.742188 -8.136719 s -1.808594 -6.476563 -4.742188 -8.136719 l -65.460937 -37.414062 c -1.359375 -0.769532 -2.890625 -1.1875 -4.453125 -1.214844 c -0.085938 0 -0.171875 0 -0.257812 0 z m 0 0"/>
    </clipPath>
    <clipPath id="af">
        <path d="m 21 68 h 22 v 46 h -22 z m 0 0"/>
    </clipPath>
    <clipPath id="ag">
        <path d="m 30.335938 19.9375 c -0.027344 0 -0.054688 0 -0.085938 0 h -9.195312 v 93.53125 h 8.789062 c 1.816406 0.109375 3.625 -0.3125 5.203125 -1.214844 l 65.460937 -37.414062 c 2.933594 -1.660156 4.742188 -4.769532 4.742188 -8.136719 s -1.808594 -6.476563 -4.742188 -8.136719 l -65.460937 -37.414062 c -1.359375 -0.769532 -2.890625 -1.1875 -4.453125 -1.214844 c -0.085938 0 -0.171875 0 -0.257812 0 z m 0 0"/>
    </clipPath>
    <clipPath id="ah">
        <path d="m 52 88 h 27 v 26 h -27 z m 0 0"/>
    </clipPath>
    <clipPath id="ai">
        <path d="m 30.335938 19.9375 c -0.027344 0 -0.054688 0 -0.085938 0 h -9.195312 v 93.53125 h 8.789062 c 1.816406 0.109375 3.625 -0.3125 5.203125 -1.214844 l 65.460937 -37.414062 c 2.933594 -1.660156 4.742188 -4.769532 4.742188 -8.136719 s -1.808594 -6.476563 -4.742188 -8.136719 l -65.460937 -37.414062 c -1.359375 -0.769532 -2.890625 -1.1875 -4.453125 -1.214844 c -0.085938 0 -0.171875 0 -0.257812 0 z m 0 0"/>
    </clipPath>
    <clipPath id="aj">
        <path d="m 66 61 h 10 v 14 h -10 z m 0 0"/>
    </clipPath>
    <clipPath id="ak">
        <path d="m 30.335938 19.9375 c -0.027344 0 -0.054688 0 -0.085938 0 h -9.195312 v 93.53125 h 8.789062 c 1.816406 0.109375 3.625 -0.3125 5.203125 -1.214844 l 65.460937 -37.414062 c 2.933594 -1.660156 4.742188 -4.769532 4.742188 -8.136719 s -1.808594 -6.476563 -4.742188 -8.136719 l -65.460937 -37.414062 c -1.359375 -0.769532 -2.890625 -1.1875 -4.453125 -1.214844 c -0.085938 0 -0.171875 0 -0.257812 0 z m 0 0"/>
    </clipPath>
    <clipPath id="al">
        <path d="m 24 33 h 20 v 19 h -20 z m 0 0"/>
    </clipPath>
    <clipPath id="am">
        <path d="m 30.335938 19.9375 c -0.027344 0 -0.054688 0 -0.085938 0 h -9.195312 v 93.53125 h 8.789062 c 1.816406 0.109375 3.625 -0.3125 5.203125 -1.214844 l 65.460937 -37.414062 c 2.933594 -1.660156 4.742188 -4.769532 4.742188 -8.136719 s -1.808594 -6.476563 -4.742188 -8.136719 l -65.460937 -37.414062 c -1.359375 -0.769532 -2.890625 -1.1875 -4.453125 -1.214844 c -0.085938 0 -0.171875 0 -0.257812 0 z m 0 0"/>
    </clipPath>
    <clipPath id="an">
        <path d="m 20 19 h 85 v 94 h -85 z m 0 0"/>
    </clipPath>
    <clipPath id="ao">
        <path d="m 29.777344 19.140625 c -0.027344 0 -0.058594 0 -0.085938 0.003906 h -9.199218 v 93.527344 h 8.792968 c 1.816406 0.109375 3.621094 -0.3125 5.199219 -1.214844 l 65.464844 -37.414062 c 2.929687 -1.660157 4.742187 -4.765625 4.742187 -8.136719 c 0 -3.367188 -1.8125 -6.476562 -4.742187 -8.136719 l -65.464844 -37.414062 c -1.355469 -0.769531 -2.886719 -1.1875 -4.449219 -1.210938 c -0.085937 -0.003906 -0.171875 -0.003906 -0.257812 -0.003906 z m 0 0"/>
    </clipPath>
    <clipPath id="ap">
        <path d="m 31 34 h 1 v 1 h -1 z m 0 0"/>
    </clipPath>
    <clipPath id="aq">
        <path d="m 29.777344 19.140625 c -0.027344 0 -0.058594 0 -0.085938 0.003906 h -9.199218 v 93.527344 h 8.792968 c 1.816406 0.109375 3.621094 -0.3125 5.199219 -1.214844 l 65.464844 -37.414062 c 2.929687 -1.660157 4.742187 -4.765625 4.742187 -8.136719 c 0 -3.367188 -1.8125 -6.476562 -4.742187 -8.136719 l -65.464844 -37.414062 c -1.355469 -0.769531 -2.886719 -1.1875 -4.449219 -1.210938 c -0.085937 -0.003906 -0.171875 -0.003906 -0.257812 -0.003906 z m 0 0"/>
    </clipPath>
    <clipPath id="ar">
        <path d="m 20 19 h 76 v 94 h -76 z m 0 0"/>
    </clipPath>
    <clipPath id="as">
        <path d="m 29.777344 19.140625 c -0.027344 0 -0.058594 0 -0.085938 0.003906 h -9.199218 v 93.527344 h 8.792968 c 1.816406 0.109375 3.621094 -0.3125 5.199219 -1.214844 l 65.464844 -37.414062 c 2.929687 -1.660157 4.742187 -4.765625 4.742187 -8.136719 c 0 -3.367188 -1.8125 -6.476562 -4.742187 -8.136719 l -65.464844 -37.414062 c -1.355469 -0.769531 -2.886719 -1.1875 -4.449219 -1.210938 c -0.085937 -0.003906 -0.171875 -0.003906 -0.257812 -0.003906 z m 0 0"/>
    </clipPath>
    <clipPath id="at">
        <path d="m 75 31 h 30 v 78 h -30 z m 0 0"/>
    </clipPath>
    <clipPath id="au">
        <path d="m 29.777344 19.140625 c -0.027344 0 -0.058594 0 -0.085938 0.003906 h -9.199218 v 93.527344 h 8.792968 c 1.816406 0.109375 3.621094 -0.3125 5.199219 -1.214844 l 65.464844 -37.414062 c 2.929687 -1.660157 4.742187 -4.765625 4.742187 -8.136719 c 0 -3.367188 -1.8125 -6.476562 -4.742187 -8.136719 l -65.464844 -37.414062 c -1.355469 -0.769531 -2.886719 -1.1875 -4.449219 -1.210938 c -0.085937 -0.003906 -0.171875 -0.003906 -0.257812 -0.003906 z m 0 0"/>
    </clipPath>
    <clipPath id="av">
        <path d="m 20 23 h 45 v 66 h -45 z m 0 0"/>
    </clipPath>
    <clipPath id="aw">
        <path d="m 29.777344 19.140625 c -0.027344 0 -0.058594 0 -0.085938 0.003906 h -9.199218 v 93.527344 h 8.792968 c 1.816406 0.109375 3.621094 -0.3125 5.199219 -1.214844 l 65.464844 -37.414062 c 2.929687 -1.660157 4.742187 -4.765625 4.742187 -8.136719 c 0 -3.367188 -1.8125 -6.476562 -4.742187 -8.136719 l -65.464844 -37.414062 c -1.355469 -0.769531 -2.886719 -1.1875 -4.449219 -1.210938 c -0.085937 -0.003906 -0.171875 -0.003906 -0.257812 -0.003906 z m 0 0"/>
    </clipPath>
    <clipPath id="ax">
        <path d="m 20 19 h 85 v 37 h -85 z m 0 0"/>
    </clipPath>
    <clipPath id="ay">
        <path d="m 29.777344 19.140625 c -0.027344 0 -0.058594 0 -0.085938 0.003906 h -9.199218 v 93.527344 h 8.792968 c 1.816406 0.109375 3.621094 -0.3125 5.199219 -1.214844 l 65.464844 -37.414062 c 2.929687 -1.660157 4.742187 -4.765625 4.742187 -8.136719 c 0 -3.367188 -1.8125 -6.476562 -4.742187 -8.136719 l -65.464844 -37.414062 c -1.355469 -0.769531 -2.886719 -1.1875 -4.449219 -1.210938 c -0.085937 -0.003906 -0.171875 -0.003906 -0.257812 -0.003906 z m 0 0"/>
    </clipPath>
    <clipPath id="az">
        <path d="m 20 67 h 23 v 46 h -23 z m 0 0"/>
    </clipPath>
    <clipPath id="aA">
        <path d="m 29.777344 19.140625 c -0.027344 0 -0.058594 0 -0.085938 0.003906 h -9.199218 v 93.527344 h 8.792968 c 1.816406 0.109375 3.621094 -0.3125 5.199219 -1.214844 l 65.464844 -37.414062 c 2.929687 -1.660157 4.742187 -4.765625 4.742187 -8.136719 c 0 -3.367188 -1.8125 -6.476562 -4.742187 -8.136719 l -65.464844 -37.414062 c -1.355469 -0.769531 -2.886719 -1.1875 -4.449219 -1.210938 c -0.085937 -0.003906 -0.171875 -0.003906 -0.257812 -0.003906 z m 0 0"/>
    </clipPath>
    <clipPath id="aB">
        <path d="m 52 88 h 26 v 25 h -26 z m 0 0"/>
    </clipPath>
    <clipPath id="aC">
        <path d="m 29.777344 19.140625 c -0.027344 0 -0.058594 0 -0.085938 0.003906 h -9.199218 v 93.527344 h 8.792968 c 1.816406 0.109375 3.621094 -0.3125 5.199219 -1.214844 l 65.464844 -37.414062 c 2.929687 -1.660157 4.742187 -4.765625 4.742187 -8.136719 c 0 -3.367188 -1.8125 -6.476562 -4.742187 -8.136719 l -65.464844 -37.414062 c -1.355469 -0.769531 -2.886719 -1.1875 -4.449219 -1.210938 c -0.085937 -0.003906 -0.171875 -0.003906 -0.257812 -0.003906 z m 0 0"/>
    </clipPath>
    <clipPath id="aD">
        <path d="m 65 60 h 11 v 14 h -11 z m 0 0"/>
    </clipPath>
    <clipPath id="aE">
        <path d="m 29.777344 19.140625 c -0.027344 0 -0.058594 0 -0.085938 0.003906 h -9.199218 v 93.527344 h 8.792968 c 1.816406 0.109375 3.621094 -0.3125 5.199219 -1.214844 l 65.464844 -37.414062 c 2.929687 -1.660157 4.742187 -4.765625 4.742187 -8.136719 c 0 -3.367188 -1.8125 -6.476562 -4.742187 -8.136719 l -65.464844 -37.414062 c -1.355469 -0.769531 -2.886719 -1.1875 -4.449219 -1.210938 c -0.085937 -0.003906 -0.171875 -0.003906 -0.257812 -0.003906 z m 0 0"/>
    </clipPath>
    <clipPath id="aF">
        <path d="m 23 32 h 21 v 19 h -21 z m 0 0"/>
    </clipPath>
    <clipPath id="aG">
        <path d="m 29.777344 19.140625 c -0.027344 0 -0.058594 0 -0.085938 0.003906 h -9.199218 v 93.527344 h 8.792968 c 1.816406 0.109375 3.621094 -0.3125 5.199219 -1.214844 l 65.464844 -37.414062 c 2.929687 -1.660157 4.742187 -4.765625 4.742187 -8.136719 c 0 -3.367188 -1.8125 -6.476562 -4.742187 -8.136719 l -65.464844 -37.414062 c -1.355469 -0.769531 -2.886719 -1.1875 -4.449219 -1.210938 c -0.085937 -0.003906 -0.171875 -0.003906 -0.257812 -0.003906 z m 0 0"/>
    </clipPath>
    <clipPath id="aH">
        <rect height="128" width="128"/>
    </clipPath>
    <clipPath id="aI">
        <rect height="128" width="128"/>
    </clipPath>
    <mask id="aJ">
        <g filter="url(#a)">
            <g clip-path="url(#aI)" filter="url(#a)">
                <g clip-path="url(#aH)">
                    <g clip-path="url(#R)">
                        <g clip-path="url(#S)">
                            <path d="m 30.03425 191.141279 c -5.472656 -0.273437 -10.164062 4.964844 -9.539062 10.359375 c 0.035156 24.949219 -0.074219 49.902344 0.054687 74.84375 c 0.425781 5.847656 7.097656 9.984375 12.523438 7.769531 c 6.488281 -3.359375 12.726562 -7.222656 19.117187 -10.773437 c 16.199219 -9.300781 32.472656 -18.476563 48.625 -27.851563 c 4.867188 -3.261718 5.164063 -11.105468 0.558594 -14.726562 c -5.335938 -3.457031 -11.03125 -6.367188 -16.503906 -9.609375 c -17.113282 -9.734375 -34.148438 -19.609375 -51.304688 -29.253906 c -1.113281 -0.476563 -2.320312 -0.738282 -3.53125 -0.757813 z m 9.167969 25.488281 c 12.40625 7.09375 24.816406 14.183594 37.222656 21.277344 c -12.40625 7.09375 -24.816406 14.1875 -37.222656 21.277344 c 0 -14.183594 0 -28.371094 0 -42.554688 z m 0 0" fill="#6e6e6e" stroke="#ffffff" stroke-width="0.001" transform="matrix(1 0 0 1 0.5595 -171.203779)"/>
                        </g>
                    </g>
                    <g clip-path="url(#T)">
                        <g clip-path="url(#U)">
                            <path d="m 32.46875 35.582031 c -0.011719 0.011719 -0.007812 0.023438 -0.019531 0.03125 c -0.03125 0.023438 -0.019531 0.007813 -0.039063 0.015625 c 0.023438 -0.015625 0.039063 -0.027344 0.058594 -0.046875 z m 0 0" fill="#6e6e6e" fill-rule="evenodd"/>
                        </g>
                    </g>
                    <g clip-path="url(#V)">
                        <g clip-path="url(#W)">
                            <path d="m 31.800781 34.921875 c -0.058593 0.105469 -0.144531 0.234375 -0.144531 0.238281 s -0.003906 -0.0625 0.058594 -0.167968 c 0.019531 -0.035157 0.058594 -0.039063 0.085937 -0.070313 z m 0 0" fill="#6e6e6e" fill-rule="evenodd"/>
                        </g>
                    </g>
                    <g clip-path="url(#X)">
                        <g clip-path="url(#Y)">
                            <path d="m 29.84675 275.320967 c -3.117187 0 -6.234375 0 -9.351562 0 v 9.351562 h 9.351562 c 0 -3.117187 0 -6.234375 0 -9.351562 z m 0 -84.179688 c -3.117187 0 -6.234375 0 -9.351562 0 v 9.355469 h 9.351562 c 0 -3.121094 0 -6.238281 0 -9.355469 z m 0 9.355469 c 21.820313 12.46875 43.636719 24.941406 65.453125 37.410156 c -21.816406 12.472656 -43.632812 24.941406 -65.453125 37.414063 c 0 -24.941407 0 -49.882813 0 -74.824219 z m 0 0" fill="#6e6e6e" stroke="#ffffff" stroke-width="0.001" transform="matrix(1 0 0 1 0.5595 -171.203779)"/>
                        </g>
                    </g>
                    <g clip-path="url(#Z)">
                        <g clip-path="url(#aa)">
                            <path d="m 114.175781 32.820312 c 0.292969 -0.046874 0.550781 -0.066406 0.6875 0.011719 c 0.175781 0.101563 0.328125 0.300781 0.4375 0.664063 c 0.21875 0.730468 0.183594 2.011718 -0.058593 3.425781 c -0.476563 2.824219 -1.703126 6.25 -2.425782 7.582031 l -0.023437 0.042969 l -0.015625 0.046875 c -0.921875 3.03125 -2.800782 6.5625 -3.8125 10.125 c -1.011719 3.5625 -1.125 7.261719 1.582031 10.394531 l 0.035156 0.042969 l 0.042969 0.03125 c 5.886719 4.445312 13.679688 4.242188 19.941406 7.074219 l 0.042969 0.019531 l 0.046875 0.011719 c 7.367188 1.800781 13.246094 6.898437 17.683594 12.957031 l 0.011718 0.007812 l 0.003907 0.007813 c 1.46875 1.828125 4.539062 5.632813 5.882812 8.535156 c 0.332031 0.726563 0.558594 1.390625 0.632813 1.925781 c 0.074218 0.535157 0 0.910157 -0.175782 1.152344 c -0.179687 0.246094 -0.503906 0.441406 -1.167968 0.503906 c -0.660156 0.0625 -1.628906 -0.03125 -2.917969 -0.351562 l -0.078125 -0.019531 l -0.082031 0.003906 c -12.183594 0.941406 -24.257813 3.191406 -36.332031 4.8125 l -0.046876 0.007813 l -0.046874 0.015624 c -8.429688 2.917969 -17.15625 5.210938 -25.929688 7.070313 l -0.050781 0.007813 l -0.046875 0.019531 c -2.082032 0.90625 -3.660156 0.863281 -4.964844 0.257812 c -1.308594 -0.605469 -2.382812 -1.816406 -3.273438 -3.375 c -1.769531 -3.082031 -2.78125 -7.40625 -3.820312 -10.398437 c -0.429688 -8.050782 4.105469 -15.429688 7.375 -22.792969 l 0.011719 -0.03125 c 0.003906 -0.003906 0.003906 -0.007813 0.007812 -0.015625 c 6.445313 -11.382812 9.464844 -25.769531 20.988281 -32.800781 c 0.945313 0.53125 1.992188 0.671875 3 0.421875 c 1.140626 -0.285156 2.238282 -0.945313 3.222657 -1.789063 c 1.839843 -1.574219 3.21875 -3.742187 3.632812 -5.605469 z m 0 0" fill="#6e6e6e"/>
                        </g>
                    </g>
                    <g clip-path="url(#ab)">
                        <g clip-path="url(#ac)">
                            <path d="m -5.078125 24.773438 c 2.003906 3.742187 1.550781 7.175781 2.683594 11.273437 l 0.074219 0.273437 l 0.277343 0.074219 c 2.136719 0.578125 3.289063 0.75 4.058594 0.667969 c 0.386719 -0.042969 0.699219 -0.164062 0.917969 -0.351562 s 0.324218 -0.402344 0.394531 -0.542969 c 0.074219 -0.136719 0.105469 -0.195313 0.148437 -0.230469 c 0.046876 -0.039062 0.125 -0.085938 0.375 -0.109375 c 0.5 -0.046875 1.609376 0.089844 3.703126 0.671875 l 0.027343 0.007812 l 0.023438 0.003907 c -0.113281 -0.019531 0.1875 0.097656 0.503906 0.34375 c 0.316406 0.246093 0.730469 0.605469 1.199219 1.054687 c 0.945312 0.890625 2.132812 2.125 3.359375 3.5 c 2.449219 2.75 5.046875 6.097656 6.132812 8.386719 c 0.554688 1.167969 1.746094 2.253906 3.21875 3.308594 c 1.476563 1.058593 3.246094 2.0625 4.980469 2.953125 c 3.464844 1.78125 6.75 3.074218 7.246094 3.253906 c 2.097656 0.769531 3.894531 0.621094 5.410156 0.0625 c 1.519531 -0.558594 2.773438 -1.5 3.910156 -2.296875 c 1.136719 -0.796875 2.152344 -1.429687 3.121094 -1.519531 c 0.972656 -0.089844 2.003906 0.289062 3.371094 1.792968 v 0.003907 c 6.238281 6.800781 13.976562 13.589843 15.496094 22.828125 c -0.605469 3.480468 -3.273438 6.1875 -6.621094 7.625 c -3.367188 1.449218 -7.371094 1.574218 -10.441406 -0.03125 l -0.085938 -0.046875 l -0.101562 -0.007813 c -10.757813 -0.914062 -21.269532 -1.253906 -28.707032 -8.351562 c -0.742187 -0.707032 -1.828125 -2.101563 -2.898437 -3.496094 c -1.066407 -1.394531 -2.117188 -2.792969 -2.914063 -3.617188 l -0.011718 -0.011718 c -4.800782 -4.675782 -7.34375 -12.035156 -10.445313 -18.871094 c -3.039063 -6.710938 -6.71875 -12.917969 -13.765625 -15.425781 c 0.152344 -2.097657 0.347656 -4.972657 1.113281 -7.570313 c 0.75 -2.554687 2.039063 -4.6875 4.246094 -5.605468 z m 0 0" fill="#6e6e6e" fill-rule="evenodd"/>
                        </g>
                    </g>
                    <g clip-path="url(#ad)">
                        <g clip-path="url(#ae)">
                            <path d="m 59.75 1.714844 l 0.023438 0.003906 l 0.023437 -0.003906 c 6.804687 -0.328125 13.597656 0.53125 20.351563 1.136718 h 0.027343 c 8.023438 0.304688 16.226563 2.019532 23.621094 5.175782 c 2.734375 2.394531 5.121094 6.277344 6.171875 10.316406 c 1.042969 4.019531 0.757812 8.132812 -1.640625 11.15625 c -5.59375 2.796875 -12.429687 1.8125 -18.679687 3.953125 c -3.359376 0.675781 -6.984376 2.347656 -9.375 4.882813 c -2.394532 2.539062 -3.496094 6.042968 -1.636719 10 l 0.003906 0.007812 l 0.003906 0.003906 c 0.707031 1.425782 0.960938 2.613282 0.902344 3.558594 s -0.414063 1.65625 -1 2.207031 c -1.171875 1.105469 -3.375 1.535157 -5.851563 1.101563 l -0.1875 -0.035156 l -0.160156 0.097656 c -3.722656 2.265625 -6.511718 1.589844 -9.007812 -0.292969 s -4.589844 -5.050781 -6.457032 -7.71875 l -0.222656 -0.320313 l -0.363281 0.136719 c -1.25 0.472657 -2.222656 0.515625 -2.996094 0.296875 c -0.773437 -0.214844 -1.378906 -0.699218 -1.878906 -1.402344 c -0.996094 -1.410156 -1.484375 -3.710937 -1.640625 -5.9375 l -0.015625 -0.246093 l -0.207031 -0.136719 c -5.757813 -3.8125 -11.980469 -6.828125 -17.480469 -10.847656 l -0.066406 -0.046875 l -0.082031 -0.023438 c -8.71875 -2.738281 -17.964844 -3.5625 -26.898438 -5.042969 c -0.890625 -0.253906 -1.667969 -0.511718 -2.082031 -0.859374 c -0.417969 -0.347657 -0.597657 -0.714844 -0.351563 -1.660157 l 0.023438 -0.078125 l -0.007813 -0.082031 c -0.121093 -1.851563 0.398438 -2.890625 1.304688 -3.597656 c 0.910156 -0.707031 2.300781 -1.0625 3.90625 -1.222657 c 3.210937 -0.316406 7.160156 0.175782 9.785156 -0.746093 l 0.035156 -0.011719 l 0.035157 -0.019531 c 7.5 -3.957031 15.855468 -6.164063 23.589843 -10.007813 l 0.011719 -0.003906 l 0.011719 -0.007812 c 5.632812 -3.15625 12.035156 -3.945313 18.460937 -3.683594 z m 0 0" fill="#6e6e6e" fill-rule="evenodd"/>
                        </g>
                    </g>
                    <g clip-path="url(#af)">
                        <g clip-path="url(#ag)">
                            <path d="m 4.230469 68.527344 c 2.59375 2.257812 4.820312 4.722656 4.589843 8.300781 l 0.015626 -0.085937 c -1.632813 6.8125 4.042968 14.019531 11.191406 13.152343 l 0.050781 -0.003906 l 0.046875 -0.015625 c 3.78125 -1.273438 7.566406 -1.535156 10.820312 -0.519531 c 3.257813 1.015625 6.007813 3.285156 7.785157 7.207031 l 0.042969 0.097656 l 0.082031 0.070313 c 2.855469 2.492187 3.980469 6.125 3.777343 9.730469 c -0.203124 3.570312 -1.734374 7.082031 -4.125 9.328124 c -3.644531 1.3125 -7.25 0.773438 -10.851562 -0.46875 c -3.628906 -1.253906 -7.21875 -3.21875 -10.71875 -4.613281 l -0.007812 -0.003906 l -0.011719 -0.003906 c -8.234375 -2.875 -13.941407 -10.882813 -14.386719 -19.535157 v -0.027343 l -0.007812 -0.027344 c -1.285157 -7.734375 -1.289063 -15.375 1.707031 -22.582031 z m 0 0" fill="#6e6e6e" fill-rule="evenodd"/>
                        </g>
                    </g>
                    <g clip-path="url(#ah)">
                        <g clip-path="url(#ai)">
                            <path d="m 66.675781 88.941406 c 2.820313 1.152344 5.09375 3.382813 6.402344 6.136719 c 1.035156 2.234375 2.242187 4.335937 2.773437 6.628906 l 0.003907 0.015625 l 0.003906 0.011719 c 1.851563 6.234375 3.757813 12.859375 1.921875 19.152344 l -0.023438 0.078125 l 0.003907 0.085937 c 0.109375 2.152344 -0.574219 4.59375 -2.511719 5.570313 c -1.464844 0.6875 -3.070312 0.648437 -4.597656 0.128906 c -1.53125 -0.519531 -2.964844 -1.527344 -3.992188 -2.710938 l 0.035156 0.042969 c -1.28125 -1.859375 -2.9375 -3.34375 -4.460937 -4.871093 h -0.003906 c -4.078125 -4.039063 -8.433594 -8.300782 -9.644531 -13.929688 c 3.136718 -3.367188 3.550781 -8.085938 5.726562 -11.589844 l 0.003906 -0.011718 l 0.007813 -0.007813 c 1.65625 -2.941406 5.015625 -4.484375 8.351562 -4.734375 z m 0 0" fill="#6e6e6e" fill-rule="evenodd"/>
                        </g>
                    </g>
                    <g clip-path="url(#aj)">
                        <g clip-path="url(#ak)">
                            <path d="m 69.753906 61.433594 l -0.359375 0.175781 c -1.3125 0.636719 -1.957031 1.863281 -2.734375 2.664063 l -0.171875 0.179687 l 0.039063 0.25 c 0.304687 1.871094 0.570312 4.96875 1.457031 7.148437 c 0.441406 1.085938 1.058594 2.011719 2.050781 2.320313 c 0.941406 0.292969 2.050782 -0.113281 3.292969 -1.136719 c 0.648437 0.144532 1.226563 0.226563 1.675781 0.066406 c 0.515625 -0.1875 0.84375 -0.695312 0.890625 -1.203124 c 0.09375 -1.019532 -0.46875 -2.199219 -1.214843 -3.519532 c -1.492188 -2.644531 -3.90625 -5.671875 -4.671876 -6.632812 z m 0 0" fill="#6e6e6e" fill-rule="evenodd"/>
                        </g>
                    </g>
                    <g clip-path="url(#al)">
                        <g clip-path="url(#am)">
                            <path d="m 26.960938 33.554688 c 0.023437 0.007812 0.050781 0.019531 0.089843 0.039062 c 0.085938 0.039062 0.195313 0.09375 0.304688 0.148438 c 0.21875 0.109374 0.402343 0.207031 0.460937 0.238281 c 1.050782 0.542969 2.035156 1.3125 3.402344 1.617187 c 0.410156 0.089844 0.613281 0.128906 0.761719 0.148438 c 0.074219 0.007812 0.125 0.039062 0.304687 -0.015625 c 0.019532 -0.007813 0.039063 -0.039063 0.0625 -0.050781 c 0.050782 0 0.207032 0 0.566406 0.046874 c 1.472657 0.175782 3.40625 0.773438 4.949219 1.191407 c 0.292969 0.078125 0.621094 0.195312 0.996094 0.253906 c 0.195313 0.03125 0.335937 0.003906 0.417969 -0.007813 c 0.085937 -0.007812 0.105468 0 0.078125 -0.007812 c 0.5625 0.175781 1.164062 0.949219 1.808593 1.5625 c 0.613282 0.578125 1.019532 0.914062 1.308594 1.257812 c 0.289063 0.34375 0.496094 0.722657 0.75 1.503907 c 0.09375 0.292969 0.195313 0.503906 0.214844 0.644531 c 0.121094 0.820312 0.265625 1.597656 0.125 2.25 c -0.453125 2.113281 -2.191406 4.0625 -3.9375 5.414062 c -0.359375 0.277344 -0.65625 0.535157 -0.953125 0.664063 c -1.816406 0.792969 -3.519531 0.808594 -5.566406 0.808594 c -1.289063 0 -2.550781 0.074219 -3.539063 -0.429688 c -0.6875 -0.351562 -1.085937 -0.953125 -1.417968 -1.714843 c -0.328126 -0.765626 -0.558594 -1.667969 -0.9375 -2.503907 c -0.402344 -0.890625 -0.964844 -1.636719 -1.324219 -2.386719 c -0.234375 -0.496093 -0.335938 -1.035156 -0.570313 -1.660156 c -0.28125 -0.761718 -0.683594 -1.527344 -0.777344 -2.152344 c -0.023437 -0.160156 0.035157 -0.429687 0.003907 -0.808593 c -0.113281 -1.53125 -0.269531 -3.050781 -0.328125 -4.550781 c 0.03125 -0.09375 0.089844 -0.277344 0.167968 -0.5 c 0.046876 -0.132813 0.09375 -0.265626 0.132813 -0.355469 c 0.003906 -0.011719 0.007813 -0.015625 0.011719 -0.023438 c 0.695312 -0.503906 1.589844 -0.746093 2.433594 -0.621093 z m 0 0" fill="#6e6e6e" fill-rule="evenodd"/>
                        </g>
                    </g>
                    <g clip-path="url(#an)">
                        <g clip-path="url(#ao)">
                            <path d="m 30.035156 191.140625 c -5.472656 -0.273437 -10.167968 4.964844 -9.539062 10.359375 c 0.035156 24.949219 -0.074219 49.902344 0.054687 74.847656 c 0.425781 5.84375 7.097657 9.980469 12.523438 7.765625 c 6.488281 -3.359375 12.726562 -7.222656 19.117187 -10.773437 c 16.199219 -9.300782 32.472656 -18.476563 48.625 -27.851563 c 4.867188 -3.261719 5.164063 -11.105469 0.554688 -14.726562 c -5.332032 -3.457031 -11.027344 -6.367188 -16.503906 -9.609375 c -17.109376 -9.734375 -34.144532 -19.609375 -51.300782 -29.25 c -1.113281 -0.480469 -2.320312 -0.738282 -3.53125 -0.761719 z m 9.164063 25.488281 c 12.410156 7.09375 24.820312 14.1875 37.226562 21.277344 c -12.40625 7.09375 -24.816406 14.1875 -37.226562 21.277344 c 0 -14.183594 0 -28.367188 0 -42.554688 z m 0 0" fill="#ffffff" stroke="#ffffff" stroke-width="0.001" transform="matrix(1 0 0 1 0 -172)"/>
                        </g>
                    </g>
                    <g clip-path="url(#ap)">
                        <g clip-path="url(#aq)">
                            <path d="m 31.910156 34.785156 c -0.011718 0.011719 -0.007812 0.023438 -0.019531 0.03125 c -0.03125 0.023438 -0.019531 0.007813 -0.039063 0.015625 c 0.019532 -0.015625 0.035157 -0.027343 0.058594 -0.046875 z m 0 0" fill-rule="evenodd"/>
                            <path d="m 31.242188 34.125 c -0.0625 0.105469 -0.144532 0.238281 -0.144532 0.238281 c 0 0.003907 -0.003906 -0.0625 0.058594 -0.167969 c 0.019531 -0.03125 0.054688 -0.039062 0.085938 -0.070312 z m 0 0" fill-rule="evenodd"/>
                        </g>
                    </g>
                    <g clip-path="url(#ar)">
                        <g clip-path="url(#as)">
                            <path d="m 29.847656 275.320312 c -3.117187 0 -6.234375 0 -9.351562 0 v 9.351563 h 9.351562 c 0 -3.117187 0 -6.234375 0 -9.351563 z m 0 -84.179687 c -3.117187 0 -6.234375 0 -9.351562 0 v 9.355469 h 9.351562 c 0 -3.117188 0 -6.238282 0 -9.355469 z m 0 9.355469 c 21.816406 12.46875 43.636719 24.941406 65.453125 37.410156 c -21.816406 12.472656 -43.636719 24.941406 -65.453125 37.414062 c 0 -24.941406 0 -49.882812 0 -74.824218 z m 0 0" fill="#ffffff" stroke="#ffffff" stroke-width="0.001" transform="matrix(1 0 0 1 0 -172)"/>
                        </g>
                    </g>
                    <g clip-path="url(#at)">
                        <g clip-path="url(#au)">
                            <path d="m 113.617188 32.023438 c 0.292968 -0.046876 0.550781 -0.066407 0.6875 0.011718 c 0.175781 0.101563 0.328124 0.300782 0.4375 0.664063 c 0.21875 0.730469 0.179687 2.011719 -0.058594 3.425781 c -0.476563 2.824219 -1.707032 6.25 -2.425782 7.582031 l -0.023437 0.042969 l -0.015625 0.046875 c -0.925781 3.03125 -2.800781 6.5625 -3.8125 10.125 c -1.011719 3.566406 -1.128906 7.261719 1.582031 10.394531 l 0.035157 0.042969 l 0.042968 0.03125 c 5.882813 4.449219 13.679688 4.242187 19.941406 7.074219 l 0.042969 0.019531 l 0.046875 0.011719 c 7.367188 1.804687 13.246094 6.898437 17.683594 12.957031 l 0.015625 0.015625 c 1.46875 1.828125 4.539063 5.632812 5.878906 8.535156 c 0.335938 0.726563 0.5625 1.390625 0.636719 1.925782 c 0.074219 0.539062 0 0.910156 -0.179688 1.152343 c -0.175781 0.246094 -0.503906 0.441407 -1.164062 0.503907 c -0.664062 0.0625 -1.628906 -0.03125 -2.921875 -0.351563 l -0.078125 -0.019531 l -0.078125 0.003906 c -12.183594 0.941406 -24.257813 3.191406 -36.332031 4.8125 l -0.050782 0.007812 l -0.046874 0.019532 c -8.429688 2.914062 -17.152344 5.207031 -25.929688 7.066406 l -0.050781 0.011719 l -0.042969 0.019531 c -2.082031 0.902344 -3.660156 0.859375 -4.96875 0.253906 c -1.308594 -0.605468 -2.378906 -1.816406 -3.273438 -3.371094 c -1.769531 -3.082031 -2.78125 -7.410156 -3.816406 -10.402343 c -0.429687 -8.050781 4.101563 -15.429688 7.371094 -22.792969 l 0.015625 -0.027344 c 0 -0.007812 0.003906 -0.011718 0.007813 -0.015625 c 6.445312 -11.386719 9.460937 -25.769531 20.988281 -32.800781 c 0.945312 0.527344 1.988281 0.667969 3 0.417969 c 1.136719 -0.28125 2.238281 -0.945313 3.222656 -1.789063 c 1.839844 -1.574218 3.21875 -3.742187 3.632813 -5.601562 z m 0 0"/>
                        </g>
                    </g>
                    <g clip-path="url(#av)">
                        <g clip-path="url(#aw)">
                            <path d="m -5.636719 23.976562 c 2.003907 3.742188 1.550781 7.175782 2.683594 11.273438 l 0.074219 0.273438 l 0.277344 0.074218 c 2.136718 0.582032 3.289062 0.75 4.058593 0.667969 c 0.386719 -0.042969 0.695313 -0.164063 0.917969 -0.351563 c 0.21875 -0.1875 0.324219 -0.402343 0.394531 -0.542968 c 0.070313 -0.136719 0.105469 -0.195313 0.148438 -0.230469 s 0.125 -0.085937 0.375 -0.109375 c 0.5 -0.046875 1.605469 0.089844 3.703125 0.671875 l 0.027344 0.007813 l 0.023437 0.003906 c -0.113281 -0.019532 0.1875 0.097656 0.503906 0.34375 c 0.3125 0.246094 0.726563 0.609375 1.199219 1.054687 c 0.945312 0.890625 2.132812 2.125 3.359375 3.5 c 2.449219 2.75 5.046875 6.097657 6.132813 8.386719 c 0.554687 1.167969 1.746093 2.253906 3.21875 3.308594 c 1.476562 1.058594 3.246093 2.066406 4.980468 2.953125 c 3.464844 1.78125 6.75 3.074219 7.246094 3.253906 c 2.097656 0.769531 3.894531 0.621094 5.410156 0.0625 c 1.519532 -0.554687 2.773438 -1.5 3.910156 -2.296875 c 1.136719 -0.796875 2.148438 -1.429688 3.121094 -1.519531 c 0.972656 -0.085938 2.003906 0.289062 3.371094 1.792969 v 0.003906 c 6.238281 6.800781 13.972656 13.589844 15.496094 22.828125 c -0.605469 3.480469 -3.273438 6.1875 -6.621094 7.625 c -3.367188 1.449219 -7.371094 1.578125 -10.441406 -0.03125 l -0.085938 -0.046875 l -0.101562 -0.007813 c -10.757813 -0.914062 -21.269532 -1.253906 -28.707032 -8.351562 c -0.742187 -0.707031 -1.828124 -2.097657 -2.898437 -3.496094 c -1.066406 -1.394531 -2.117187 -2.792969 -2.914063 -3.617187 l -0.011718 -0.011719 c -4.800782 -4.675781 -7.34375 -12.03125 -10.445313 -18.871094 c -3.039062 -6.710937 -6.71875 -12.917969 -13.765625 -15.425781 c 0.152344 -2.097656 0.347656 -4.972656 1.113282 -7.570313 c 0.75 -2.554687 2.039062 -4.6875 4.246093 -5.605469 z m 0 0" fill-rule="evenodd"/>
                        </g>
                    </g>
                    <g clip-path="url(#ax)">
                        <g clip-path="url(#ay)">
                            <path d="m 59.191406 0.917969 l 0.023438 0.003906 l 0.023437 -0.003906 c 6.800781 -0.328125 13.597657 0.53125 20.351563 1.136719 h 0.027344 c 8.023437 0.304687 16.222656 2.019531 23.621093 5.175781 c 2.730469 2.394531 5.121094 6.28125 6.171875 10.316406 c 1.042969 4.023437 0.757813 8.136719 -1.640625 11.15625 c -5.59375 2.796875 -12.429687 1.8125 -18.679687 3.953125 c -3.359375 0.675781 -6.984375 2.347656 -9.375 4.882812 c -2.394532 2.539063 -3.496094 6.042969 -1.636719 10 l 0.003906 0.007813 l 0.003907 0.003906 c 0.707031 1.425781 0.960937 2.613281 0.902343 3.558594 c -0.058593 0.945313 -0.414062 1.65625 -1 2.207031 c -1.171875 1.105469 -3.375 1.535156 -5.851562 1.101563 l -0.1875 -0.035157 l -0.160157 0.097657 c -3.726562 2.265625 -6.511718 1.589843 -9.007812 -0.292969 c -2.496094 -1.878906 -4.589844 -5.050781 -6.457031 -7.71875 l -0.222657 -0.320312 l -0.363281 0.136718 c -1.25 0.472656 -2.222656 0.515625 -2.996093 0.296875 c -0.773438 -0.214843 -1.378907 -0.699219 -1.878907 -1.402343 c -0.996093 -1.410157 -1.484375 -3.710938 -1.640625 -5.9375 l -0.015625 -0.246094 l -0.207031 -0.136719 c -5.757812 -3.8125 -11.984375 -6.828125 -17.480469 -10.847656 l -0.066406 -0.046875 l -0.082031 -0.023438 c -8.71875 -2.738281 -17.96875 -3.5625 -26.898438 -5.042968 c -0.890625 -0.253907 -1.667968 -0.511719 -2.082031 -0.859376 c -0.417969 -0.347656 -0.597656 -0.714843 -0.351563 -1.660156 l 0.023438 -0.078125 l -0.007812 -0.082031 c -0.121094 -1.851562 0.394531 -2.890625 1.304687 -3.597656 c 0.910156 -0.707032 2.300781 -1.0625 3.90625 -1.222656 c 3.210937 -0.3125 7.160156 0.175781 9.785156 -0.746094 l 0.035157 -0.011719 l 0.035156 -0.019531 c 7.5 -3.953125 15.855468 -6.164063 23.589844 -10.007813 l 0.011718 -0.003906 l 0.011719 -0.007813 c 5.632813 -3.15625 12.03125 -3.945312 18.457031 -3.683593 z m 0 0" fill-rule="evenodd"/>
                        </g>
                    </g>
                    <g clip-path="url(#az)">
                        <g clip-path="url(#aA)">
                            <path d="m 3.671875 67.730469 c 2.59375 2.257812 4.816406 4.722656 4.589844 8.300781 l 0.015625 -0.085938 c -1.632813 6.8125 4.042968 14.019532 11.191406 13.152344 l 0.050781 -0.003906 l 0.046875 -0.015625 c 3.78125 -1.273437 7.566406 -1.535156 10.820313 -0.519531 c 3.257812 1.015625 6.007812 3.285156 7.785156 7.207031 l 0.042969 0.097656 l 0.082031 0.070313 c 2.851563 2.496094 3.980469 6.125 3.777344 9.730468 c -0.203125 3.574219 -1.734375 7.082032 -4.125 9.328126 c -3.644531 1.3125 -7.253907 0.773437 -10.851563 -0.46875 c -3.628906 -1.253907 -7.21875 -3.21875 -10.71875 -4.613282 l -0.007812 -0.003906 l -0.011719 -0.003906 c -8.238281 -2.875 -13.941406 -10.882813 -14.386719 -19.535156 v -0.027344 l -0.007812 -0.027344 c -1.285156 -7.734375 -1.289063 -15.375 1.707031 -22.582031 z m 0 0" fill-rule="evenodd"/>
                        </g>
                    </g>
                    <g clip-path="url(#aB)">
                        <g clip-path="url(#aC)">
                            <path d="m 66.113281 88.144531 c 2.824219 1.152344 5.09375 3.382813 6.402344 6.136719 c 1.035156 2.234375 2.242187 4.335938 2.773437 6.628906 l 0.003907 0.015625 l 0.003906 0.011719 c 1.855469 6.234375 3.757813 12.859375 1.925781 19.152344 l -0.023437 0.078125 l 0.003906 0.085937 c 0.109375 2.152344 -0.578125 4.59375 -2.515625 5.570313 c -1.460938 0.6875 -3.066406 0.648437 -4.59375 0.128906 c -1.53125 -0.519531 -2.964844 -1.527344 -3.992188 -2.710937 l 0.03125 0.042968 c -1.28125 -1.859375 -2.933593 -3.34375 -4.460937 -4.871094 c -4.078125 -4.035156 -8.433594 -8.300781 -9.644531 -13.929687 c 3.136718 -3.367187 3.546875 -8.085937 5.722656 -11.589844 l 0.007812 -0.011719 l 0.007813 -0.007812 c 1.65625 -2.941406 5.015625 -4.484375 8.351563 -4.730469 z m 0 0" fill-rule="evenodd"/>
                        </g>
                    </g>
                    <g clip-path="url(#aD)">
                        <g clip-path="url(#aE)">
                            <path d="m 69.195312 60.636719 l -0.359374 0.175781 c -1.3125 0.640625 -1.957032 1.867188 -2.734376 2.664062 l -0.171874 0.179688 l 0.039062 0.25 c 0.300781 1.875 0.570312 4.96875 1.453125 7.148438 c 0.445313 1.085937 1.0625 2.011718 2.054687 2.320312 c 0.941407 0.292969 2.050782 -0.109375 3.289063 -1.136719 c 0.652344 0.144531 1.230469 0.226563 1.675781 0.066407 c 0.519532 -0.1875 0.847656 -0.695313 0.894532 -1.203126 c 0.089843 -1.019531 -0.46875 -2.199218 -1.214844 -3.519531 c -1.492188 -2.640625 -3.90625 -5.671875 -4.675782 -6.632812 z m 0 0" fill-rule="evenodd"/>
                        </g>
                    </g>
                    <g clip-path="url(#aF)">
                        <g clip-path="url(#aG)">
                            <path d="m 26.402344 32.757812 c 0.019531 0.011719 0.050781 0.019532 0.089844 0.039063 c 0.082031 0.039063 0.195312 0.09375 0.304687 0.148437 c 0.21875 0.113282 0.402344 0.210938 0.460937 0.238282 c 1.050782 0.542968 2.035157 1.316406 3.402344 1.617187 c 0.410156 0.089844 0.609375 0.132813 0.761719 0.148438 c 0.074219 0.011719 0.125 0.039062 0.304687 -0.015625 c 0.019532 -0.007813 0.039063 -0.039063 0.0625 -0.050782 c 0.046876 0 0.203126 0.003907 0.566407 0.046876 c 1.472656 0.175781 3.402343 0.773437 4.949219 1.191406 c 0.292968 0.082031 0.617187 0.195312 0.996093 0.253906 c 0.191407 0.03125 0.332031 0.003906 0.417969 -0.007812 c 0.085938 -0.007813 0.105469 0.003906 0.078125 -0.007813 c 0.5625 0.175781 1.160156 0.953125 1.808594 1.5625 c 0.613281 0.578125 1.019531 0.914063 1.308593 1.257813 c 0.285157 0.347656 0.496094 0.722656 0.75 1.503906 c 0.09375 0.296875 0.195313 0.503906 0.214844 0.644531 c 0.121094 0.824219 0.265625 1.597656 0.125 2.25 c -0.457031 2.113281 -2.195312 4.066406 -3.9375 5.414063 c -0.359375 0.277343 -0.660156 0.535156 -0.953125 0.664062 c -1.816406 0.792969 -3.519531 0.808594 -5.566406 0.808594 c -1.289063 0 -2.550781 0.074218 -3.539063 -0.429688 c -0.6875 -0.351562 -1.085937 -0.953125 -1.417968 -1.714844 c -0.328125 -0.765624 -0.5625 -1.667968 -0.9375 -2.503906 c -0.402344 -0.890625 -0.964844 -1.636718 -1.324219 -2.386718 c -0.234375 -0.496094 -0.335937 -1.035157 -0.570313 -1.660157 c -0.28125 -0.761719 -0.683593 -1.527343 -0.777343 -2.152343 c -0.023438 -0.15625 0.035156 -0.429688 0.003906 -0.808594 c -0.113281 -1.53125 -0.269531 -3.046875 -0.328125 -4.550782 c 0.027344 -0.09375 0.085938 -0.273437 0.167969 -0.5 c 0.046875 -0.132812 0.09375 -0.265624 0.132812 -0.355468 c 0.003907 -0.011719 0.003907 -0.015625 0.007813 -0.023438 c 0.699218 -0.5 1.59375 -0.746094 2.4375 -0.621094 z m 0 0" fill-rule="evenodd"/>
                        </g>
                    </g>
                </g>
            </g>
        </g>
    </mask>
    <mask id="aK">
        <g filter="url(#a)">
            <rect fill-opacity="0.8" height="184.32" width="184.32" x="-28.16" y="-28.16"/>
        </g>
    </mask>
    <linearGradient id="aL" gradientTransform="matrix(0 0.37 -0.98462 0 295.38501 -30.360001)" gradientUnits="userSpaceOnUse" x1="300" x2="428" y1="235" y2="235">
        <stop offset="0" stop-color="#f9f06b"/>
        <stop offset="1" stop-color="#f5c211"/>
    </linearGradient>
    <clipPath id="aM">
        <rect height="128" width="128"/>
    </clipPath>
    <clipPath id="aN">
        <rect height="128" width="128"/>
    </clipPath>
    <g clip-path="url(#b)">
        <g clip-path="url(#c)">
            <path d="m 30.03425 191.141279 c -5.472656 -0.273437 -10.164062 4.964844 -9.539062 10.359375 c 0.035156 24.949219 -0.074219 49.902344 0.054687 74.84375 c 0.425781 5.847656 7.097656 9.984375 12.523438 7.769531 c 6.488281 -3.359375 12.726562 -7.222656 19.117187 -10.773437 c 16.199219 -9.300781 32.472656 -18.476563 48.625 -27.851563 c 4.867188 -3.261718 5.164063 -11.105468 0.558594 -14.726562 c -5.335938 -3.457031 -11.03125 -6.367188 -16.503906 -9.609375 c -17.113282 -9.734375 -34.148438 -19.609375 -51.304688 -29.253906 c -1.113281 -0.476563 -2.320312 -0.738282 -3.53125 -0.757813 z m 9.167969 25.488281 c 12.40625 7.09375 24.816406 14.183594 37.222656 21.277344 c -12.40625 7.09375 -24.816406 14.1875 -37.222656 21.277344 c 0 -14.183594 0 -28.371094 0 -42.554688 z m 0 0" fill="#6e6e6e" stroke="#ffffff" stroke-width="0.001" transform="matrix(1 0 0 1 0.5595 -171.203779)"/>
        </g>
    </g>
    <g clip-path="url(#d)">
        <g clip-path="url(#e)">
            <path d="m 32.46875 35.582031 c -0.011719 0.011719 -0.007812 0.023438 -0.019531 0.03125 c -0.03125 0.023438 -0.019531 0.007813 -0.039063 0.015625 c 0.023438 -0.015625 0.039063 -0.027344 0.058594 -0.046875 z m 0 0" fill="#6e6e6e" fill-rule="evenodd"/>
        </g>
    </g>
    <g clip-path="url(#f)">
        <g clip-path="url(#g)">
            <path d="m 31.800781 34.921875 c -0.058593 0.105469 -0.144531 0.234375 -0.144531 0.238281 s -0.003906 -0.0625 0.058594 -0.167968 c 0.019531 -0.035157 0.058594 -0.039063 0.085937 -0.070313 z m 0 0" fill="#6e6e6e" fill-rule="evenodd"/>
        </g>
    </g>
    <g clip-path="url(#h)">
        <g clip-path="url(#i)">
            <path d="m 29.84675 275.320967 c -3.117187 0 -6.234375 0 -9.351562 0 v 9.351562 h 9.351562 c 0 -3.117187 0 -6.234375 0 -9.351562 z m 0 -84.179688 c -3.117187 0 -6.234375 0 -9.351562 0 v 9.355469 h 9.351562 c 0 -3.121094 0 -6.238281 0 -9.355469 z m 0 9.355469 c 21.820313 12.46875 43.636719 24.941406 65.453125 37.410156 c -21.816406 12.472656 -43.632812 24.941406 -65.453125 37.414063 c 0 -24.941407 0 -49.882813 0 -74.824219 z m 0 0" fill="#6e6e6e" stroke="#ffffff" stroke-width="0.001" transform="matrix(1 0 0 1 0.5595 -171.203779)"/>
        </g>
    </g>
    <g clip-path="url(#j)">
        <g clip-path="url(#k)">
            <path d="m 114.175781 32.820312 c 0.292969 -0.046874 0.550781 -0.066406 0.6875 0.011719 c 0.175781 0.101563 0.328125 0.300781 0.4375 0.664063 c 0.21875 0.730468 0.183594 2.011718 -0.058593 3.425781 c -0.476563 2.824219 -1.703126 6.25 -2.425782 7.582031 l -0.023437 0.042969 l -0.015625 0.046875 c -0.921875 3.03125 -2.800782 6.5625 -3.8125 10.125 c -1.011719 3.5625 -1.125 7.261719 1.582031 10.394531 l 0.035156 0.042969 l 0.042969 0.03125 c 5.886719 4.445312 13.679688 4.242188 19.941406 7.074219 l 0.042969 0.019531 l 0.046875 0.011719 c 7.367188 1.800781 13.246094 6.898437 17.683594 12.957031 l 0.011718 0.007812 l 0.003907 0.007813 c 1.46875 1.828125 4.539062 5.632813 5.882812 8.535156 c 0.332031 0.726563 0.558594 1.390625 0.632813 1.925781 c 0.074218 0.535157 0 0.910157 -0.175782 1.152344 c -0.179687 0.246094 -0.503906 0.441406 -1.167968 0.503906 c -0.660156 0.0625 -1.628906 -0.03125 -2.917969 -0.351562 l -0.078125 -0.019531 l -0.082031 0.003906 c -12.183594 0.941406 -24.257813 3.191406 -36.332031 4.8125 l -0.046876 0.007813 l -0.046874 0.015624 c -8.429688 2.917969 -17.15625 5.210938 -25.929688 7.070313 l -0.050781 0.007813 l -0.046875 0.019531 c -2.082032 0.90625 -3.660156 0.863281 -4.964844 0.257812 c -1.308594 -0.605469 -2.382812 -1.816406 -3.273438 -3.375 c -1.769531 -3.082031 -2.78125 -7.40625 -3.820312 -10.398437 c -0.429688 -8.050782 4.105469 -15.429688 7.375 -22.792969 l 0.011719 -0.03125 c 0.003906 -0.003906 0.003906 -0.007813 0.007812 -0.015625 c 6.445313 -11.382812 9.464844 -25.769531 20.988281 -32.800781 c 0.945313 0.53125 1.992188 0.671875 3 0.421875 c 1.140626 -0.285156 2.238282 -0.945313 3.222657 -1.789063 c 1.839843 -1.574219 3.21875 -3.742187 3.632812 -5.605469 z m 0 0" fill="#6e6e6e"/>
        </g>
    </g>
    <g clip-path="url(#l)">
        <g clip-path="url(#m)">
            <path d="m -5.078125 24.773438 c 2.003906 3.742187 1.550781 7.175781 2.683594 11.273437 l 0.074219 0.273437 l 0.277343 0.074219 c 2.136719 0.578125 3.289063 0.75 4.058594 0.667969 c 0.386719 -0.042969 0.699219 -0.164062 0.917969 -0.351562 s 0.324218 -0.402344 0.394531 -0.542969 c 0.074219 -0.136719 0.105469 -0.195313 0.148437 -0.230469 c 0.046876 -0.039062 0.125 -0.085938 0.375 -0.109375 c 0.5 -0.046875 1.609376 0.089844 3.703126 0.671875 l 0.027343 0.007812 l 0.023438 0.003907 c -0.113281 -0.019531 0.1875 0.097656 0.503906 0.34375 c 0.316406 0.246093 0.730469 0.605469 1.199219 1.054687 c 0.945312 0.890625 2.132812 2.125 3.359375 3.5 c 2.449219 2.75 5.046875 6.097656 6.132812 8.386719 c 0.554688 1.167969 1.746094 2.253906 3.21875 3.308594 c 1.476563 1.058593 3.246094 2.0625 4.980469 2.953125 c 3.464844 1.78125 6.75 3.074218 7.246094 3.253906 c 2.097656 0.769531 3.894531 0.621094 5.410156 0.0625 c 1.519531 -0.558594 2.773438 -1.5 3.910156 -2.296875 c 1.136719 -0.796875 2.152344 -1.429687 3.121094 -1.519531 c 0.972656 -0.089844 2.003906 0.289062 3.371094 1.792968 v 0.003907 c 6.238281 6.800781 13.976562 13.589843 15.496094 22.828125 c -0.605469 3.480468 -3.273438 6.1875 -6.621094 7.625 c -3.367188 1.449218 -7.371094 1.574218 -10.441406 -0.03125 l -0.085938 -0.046875 l -0.101562 -0.007813 c -10.757813 -0.914062 -21.269532 -1.253906 -28.707032 -8.351562 c -0.742187 -0.707032 -1.828125 -2.101563 -2.898437 -3.496094 c -1.066407 -1.394531 -2.117188 -2.792969 -2.914063 -3.617188 l -0.011718 -0.011718 c -4.800782 -4.675782 -7.34375 -12.035156 -10.445313 -18.871094 c -3.039063 -6.710938 -6.71875 -12.917969 -13.765625 -15.425781 c 0.152344 -2.097657 0.347656 -4.972657 1.113281 -7.570313 c 0.75 -2.554687 2.039063 -4.6875 4.246094 -5.605468 z m 0 0" fill="#6e6e6e" fill-rule="evenodd"/>
        </g>
    </g>
    <g clip-path="url(#n)">
        <g clip-path="url(#o)">
            <path d="m 59.75 1.714844 l 0.023438 0.003906 l 0.023437 -0.003906 c 6.804687 -0.328125 13.597656 0.53125 20.351563 1.136718 h 0.027343 c 8.023438 0.304688 16.226563 2.019532 23.621094 5.175782 c 2.734375 2.394531 5.121094 6.277344 6.171875 10.316406 c 1.042969 4.019531 0.757812 8.132812 -1.640625 11.15625 c -5.59375 2.796875 -12.429687 1.8125 -18.679687 3.953125 c -3.359376 0.675781 -6.984376 2.347656 -9.375 4.882813 c -2.394532 2.539062 -3.496094 6.042968 -1.636719 10 l 0.003906 0.007812 l 0.003906 0.003906 c 0.707031 1.425782 0.960938 2.613282 0.902344 3.558594 s -0.414063 1.65625 -1 2.207031 c -1.171875 1.105469 -3.375 1.535157 -5.851563 1.101563 l -0.1875 -0.035156 l -0.160156 0.097656 c -3.722656 2.265625 -6.511718 1.589844 -9.007812 -0.292969 s -4.589844 -5.050781 -6.457032 -7.71875 l -0.222656 -0.320313 l -0.363281 0.136719 c -1.25 0.472657 -2.222656 0.515625 -2.996094 0.296875 c -0.773437 -0.214844 -1.378906 -0.699218 -1.878906 -1.402344 c -0.996094 -1.410156 -1.484375 -3.710937 -1.640625 -5.9375 l -0.015625 -0.246093 l -0.207031 -0.136719 c -5.757813 -3.8125 -11.980469 -6.828125 -17.480469 -10.847656 l -0.066406 -0.046875 l -0.082031 -0.023438 c -8.71875 -2.738281 -17.964844 -3.5625 -26.898438 -5.042969 c -0.890625 -0.253906 -1.667969 -0.511718 -2.082031 -0.859374 c -0.417969 -0.347657 -0.597657 -0.714844 -0.351563 -1.660157 l 0.023438 -0.078125 l -0.007813 -0.082031 c -0.121093 -1.851563 0.398438 -2.890625 1.304688 -3.597656 c 0.910156 -0.707031 2.300781 -1.0625 3.90625 -1.222657 c 3.210937 -0.316406 7.160156 0.175782 9.785156 -0.746093 l 0.035156 -0.011719 l 0.035157 -0.019531 c 7.5 -3.957031 15.855468 -6.164063 23.589843 -10.007813 l 0.011719 -0.003906 l 0.011719 -0.007812 c 5.632812 -3.15625 12.035156 -3.945313 18.460937 -3.683594 z m 0 0" fill="#6e6e6e" fill-rule="evenodd"/>
        </g>
    </g>
    <g clip-path="url(#p)">
        <g clip-path="url(#q)">
            <path d="m 4.230469 68.527344 c 2.59375 2.257812 4.820312 4.722656 4.589843 8.300781 l 0.015626 -0.085937 c -1.632813 6.8125 4.042968 14.019531 11.191406 13.152343 l 0.050781 -0.003906 l 0.046875 -0.015625 c 3.78125 -1.273438 7.566406 -1.535156 10.820312 -0.519531 c 3.257813 1.015625 6.007813 3.285156 7.785157 7.207031 l 0.042969 0.097656 l 0.082031 0.070313 c 2.855469 2.492187 3.980469 6.125 3.777343 9.730469 c -0.203124 3.570312 -1.734374 7.082031 -4.125 9.328124 c -3.644531 1.3125 -7.25 0.773438 -10.851562 -0.46875 c -3.628906 -1.253906 -7.21875 -3.21875 -10.71875 -4.613281 l -0.007812 -0.003906 l -0.011719 -0.003906 c -8.234375 -2.875 -13.941407 -10.882813 -14.386719 -19.535157 v -0.027343 l -0.007812 -0.027344 c -1.285157 -7.734375 -1.289063 -15.375 1.707031 -22.582031 z m 0 0" fill="#6e6e6e" fill-rule="evenodd"/>
        </g>
    </g>
    <g clip-path="url(#r)">
        <g clip-path="url(#s)">
            <path d="m 66.675781 88.941406 c 2.820313 1.152344 5.09375 3.382813 6.402344 6.136719 c 1.035156 2.234375 2.242187 4.335937 2.773437 6.628906 l 0.003907 0.015625 l 0.003906 0.011719 c 1.851563 6.234375 3.757813 12.859375 1.921875 19.152344 l -0.023438 0.078125 l 0.003907 0.085937 c 0.109375 2.152344 -0.574219 4.59375 -2.511719 5.570313 c -1.464844 0.6875 -3.070312 0.648437 -4.597656 0.128906 c -1.53125 -0.519531 -2.964844 -1.527344 -3.992188 -2.710938 l 0.035156 0.042969 c -1.28125 -1.859375 -2.9375 -3.34375 -4.460937 -4.871093 h -0.003906 c -4.078125 -4.039063 -8.433594 -8.300782 -9.644531 -13.929688 c 3.136718 -3.367188 3.550781 -8.085938 5.726562 -11.589844 l 0.003906 -0.011718 l 0.007813 -0.007813 c 1.65625 -2.941406 5.015625 -4.484375 8.351562 -4.734375 z m 0 0" fill="#6e6e6e" fill-rule="evenodd"/>
        </g>
    </g>
    <g clip-path="url(#t)">
        <g clip-path="url(#u)">
            <path d="m 69.753906 61.433594 l -0.359375 0.175781 c -1.3125 0.636719 -1.957031 1.863281 -2.734375 2.664063 l -0.171875 0.179687 l 0.039063 0.25 c 0.304687 1.871094 0.570312 4.96875 1.457031 7.148437 c 0.441406 1.085938 1.058594 2.011719 2.050781 2.320313 c 0.941406 0.292969 2.050782 -0.113281 3.292969 -1.136719 c 0.648437 0.144532 1.226563 0.226563 1.675781 0.066406 c 0.515625 -0.1875 0.84375 -0.695312 0.890625 -1.203124 c 0.09375 -1.019532 -0.46875 -2.199219 -1.214843 -3.519532 c -1.492188 -2.644531 -3.90625 -5.671875 -4.671876 -6.632812 z m 0 0" fill="#6e6e6e" fill-rule="evenodd"/>
        </g>
    </g>
    <g clip-path="url(#v)">
        <g clip-path="url(#w)">
            <path d="m 26.960938 33.554688 c 0.023437 0.007812 0.050781 0.019531 0.089843 0.039062 c 0.085938 0.039062 0.195313 0.09375 0.304688 0.148438 c 0.21875 0.109374 0.402343 0.207031 0.460937 0.238281 c 1.050782 0.542969 2.035156 1.3125 3.402344 1.617187 c 0.410156 0.089844 0.613281 0.128906 0.761719 0.148438 c 0.074219 0.007812 0.125 0.039062 0.304687 -0.015625 c 0.019532 -0.007813 0.039063 -0.039063 0.0625 -0.050781 c 0.050782 0 0.207032 0 0.566406 0.046874 c 1.472657 0.175782 3.40625 0.773438 4.949219 1.191407 c 0.292969 0.078125 0.621094 0.195312 0.996094 0.253906 c 0.195313 0.03125 0.335937 0.003906 0.417969 -0.007813 c 0.085937 -0.007812 0.105468 0 0.078125 -0.007812 c 0.5625 0.175781 1.164062 0.949219 1.808593 1.5625 c 0.613282 0.578125 1.019532 0.914062 1.308594 1.257812 c 0.289063 0.34375 0.496094 0.722657 0.75 1.503907 c 0.09375 0.292969 0.195313 0.503906 0.214844 0.644531 c 0.121094 0.820312 0.265625 1.597656 0.125 2.25 c -0.453125 2.113281 -2.191406 4.0625 -3.9375 5.414062 c -0.359375 0.277344 -0.65625 0.535157 -0.953125 0.664063 c -1.816406 0.792969 -3.519531 0.808594 -5.566406 0.808594 c -1.289063 0 -2.550781 0.074219 -3.539063 -0.429688 c -0.6875 -0.351562 -1.085937 -0.953125 -1.417968 -1.714843 c -0.328126 -0.765626 -0.558594 -1.667969 -0.9375 -2.503907 c -0.402344 -0.890625 -0.964844 -1.636719 -1.324219 -2.386719 c -0.234375 -0.496093 -0.335938 -1.035156 -0.570313 -1.660156 c -0.28125 -0.761718 -0.683594 -1.527344 -0.777344 -2.152344 c -0.023437 -0.160156 0.035157 -0.429687 0.003907 -0.808593 c -0.113281 -1.53125 -0.269531 -3.050781 -0.328125 -4.550781 c 0.03125 -0.09375 0.089844 -0.277344 0.167968 -0.5 c 0.046876 -0.132813 0.09375 -0.265626 0.132813 -0.355469 c 0.003906 -0.011719 0.007813 -0.015625 0.011719 -0.023438 c 0.695312 -0.503906 1.589844 -0.746093 2.433594 -0.621093 z m 0 0" fill="#6e6e6e" fill-rule="evenodd"/>
        </g>
    </g>
    <g clip-path="url(#x)">
        <g clip-path="url(#y)">
            <path d="m 30.035156 191.140625 c -5.472656 -0.273437 -10.167968 4.964844 -9.539062 10.359375 c 0.035156 24.949219 -0.074219 49.902344 0.054687 74.847656 c 0.425781 5.84375 7.097657 9.980469 12.523438 7.765625 c 6.488281 -3.359375 12.726562 -7.222656 19.117187 -10.773437 c 16.199219 -9.300782 32.472656 -18.476563 48.625 -27.851563 c 4.867188 -3.261719 5.164063 -11.105469 0.554688 -14.726562 c -5.332032 -3.457031 -11.027344 -6.367188 -16.503906 -9.609375 c -17.109376 -9.734375 -34.144532 -19.609375 -51.300782 -29.25 c -1.113281 -0.480469 -2.320312 -0.738282 -3.53125 -0.761719 z m 9.164063 25.488281 c 12.410156 7.09375 24.820312 14.1875 37.226562 21.277344 c -12.40625 7.09375 -24.816406 14.1875 -37.226562 21.277344 c 0 -14.183594 0 -28.367188 0 -42.554688 z m 0 0" fill="#ffffff" stroke="#ffffff" stroke-width="0.001" transform="matrix(1 0 0 1 0 -172)"/>
        </g>
    </g>
    <g clip-path="url(#z)">
        <g clip-path="url(#A)" fill-rule="evenodd">
            <path d="m 31.910156 34.785156 c -0.011718 0.011719 -0.007812 0.023438 -0.019531 0.03125 c -0.03125 0.023438 -0.019531 0.007813 -0.039063 0.015625 c 0.019532 -0.015625 0.035157 -0.027343 0.058594 -0.046875 z m 0 0"/>
            <path d="m 31.242188 34.125 c -0.0625 0.105469 -0.144532 0.238281 -0.144532 0.238281 c 0 0.003907 -0.003906 -0.0625 0.058594 -0.167969 c 0.019531 -0.03125 0.054688 -0.039062 0.085938 -0.070312 z m 0 0"/>
        </g>
    </g>
    <g clip-path="url(#B)">
        <g clip-path="url(#C)">
            <path d="m 29.847656 275.320312 c -3.117187 0 -6.234375 0 -9.351562 0 v 9.351563 h 9.351562 c 0 -3.117187 0 -6.234375 0 -9.351563 z m 0 -84.179687 c -3.117187 0 -6.234375 0 -9.351562 0 v 9.355469 h 9.351562 c 0 -3.117188 0 -6.238282 0 -9.355469 z m 0 9.355469 c 21.816406 12.46875 43.636719 24.941406 65.453125 37.410156 c -21.816406 12.472656 -43.636719 24.941406 -65.453125 37.414062 c 0 -24.941406 0 -49.882812 0 -74.824218 z m 0 0" fill="#ffffff" stroke="#ffffff" stroke-width="0.001" transform="matrix(1 0 0 1 0 -172)"/>
        </g>
    </g>
    <g clip-path="url(#D)">
        <g clip-path="url(#E)">
            <path d="m 113.617188 32.023438 c 0.292968 -0.046876 0.550781 -0.066407 0.6875 0.011718 c 0.175781 0.101563 0.328124 0.300782 0.4375 0.664063 c 0.21875 0.730469 0.179687 2.011719 -0.058594 3.425781 c -0.476563 2.824219 -1.707032 6.25 -2.425782 7.582031 l -0.023437 0.042969 l -0.015625 0.046875 c -0.925781 3.03125 -2.800781 6.5625 -3.8125 10.125 c -1.011719 3.566406 -1.128906 7.261719 1.582031 10.394531 l 0.035157 0.042969 l 0.042968 0.03125 c 5.882813 4.449219 13.679688 4.242187 19.941406 7.074219 l 0.042969 0.019531 l 0.046875 0.011719 c 7.367188 1.804687 13.246094 6.898437 17.683594 12.957031 l 0.015625 0.015625 c 1.46875 1.828125 4.539063 5.632812 5.878906 8.535156 c 0.335938 0.726563 0.5625 1.390625 0.636719 1.925782 c 0.074219 0.539062 0 0.910156 -0.179688 1.152343 c -0.175781 0.246094 -0.503906 0.441407 -1.164062 0.503907 c -0.664062 0.0625 -1.628906 -0.03125 -2.921875 -0.351563 l -0.078125 -0.019531 l -0.078125 0.003906 c -12.183594 0.941406 -24.257813 3.191406 -36.332031 4.8125 l -0.050782 0.007812 l -0.046874 0.019532 c -8.429688 2.914062 -17.152344 5.207031 -25.929688 7.066406 l -0.050781 0.011719 l -0.042969 0.019531 c -2.082031 0.902344 -3.660156 0.859375 -4.96875 0.253906 c -1.308594 -0.605468 -2.378906 -1.816406 -3.273438 -3.371094 c -1.769531 -3.082031 -2.78125 -7.410156 -3.816406 -10.402343 c -0.429687 -8.050781 4.101563 -15.429688 7.371094 -22.792969 l 0.015625 -0.027344 c 0 -0.007812 0.003906 -0.011718 0.007813 -0.015625 c 6.445312 -11.386719 9.460937 -25.769531 20.988281 -32.800781 c 0.945312 0.527344 1.988281 0.667969 3 0.417969 c 1.136719 -0.28125 2.238281 -0.945313 3.222656 -1.789063 c 1.839844 -1.574218 3.21875 -3.742187 3.632813 -5.601562 z m 0 0"/>
        </g>
    </g>
    <g clip-path="url(#F)">
        <g clip-path="url(#G)">
            <path d="m -5.636719 23.976562 c 2.003907 3.742188 1.550781 7.175782 2.683594 11.273438 l 0.074219 0.273438 l 0.277344 0.074218 c 2.136718 0.582032 3.289062 0.75 4.058593 0.667969 c 0.386719 -0.042969 0.695313 -0.164063 0.917969 -0.351563 c 0.21875 -0.1875 0.324219 -0.402343 0.394531 -0.542968 c 0.070313 -0.136719 0.105469 -0.195313 0.148438 -0.230469 s 0.125 -0.085937 0.375 -0.109375 c 0.5 -0.046875 1.605469 0.089844 3.703125 0.671875 l 0.027344 0.007813 l 0.023437 0.003906 c -0.113281 -0.019532 0.1875 0.097656 0.503906 0.34375 c 0.3125 0.246094 0.726563 0.609375 1.199219 1.054687 c 0.945312 0.890625 2.132812 2.125 3.359375 3.5 c 2.449219 2.75 5.046875 6.097657 6.132813 8.386719 c 0.554687 1.167969 1.746093 2.253906 3.21875 3.308594 c 1.476562 1.058594 3.246093 2.066406 4.980468 2.953125 c 3.464844 1.78125 6.75 3.074219 7.246094 3.253906 c 2.097656 0.769531 3.894531 0.621094 5.410156 0.0625 c 1.519532 -0.554687 2.773438 -1.5 3.910156 -2.296875 c 1.136719 -0.796875 2.148438 -1.429688 3.121094 -1.519531 c 0.972656 -0.085938 2.003906 0.289062 3.371094 1.792969 v 0.003906 c 6.238281 6.800781 13.972656 13.589844 15.496094 22.828125 c -0.605469 3.480469 -3.273438 6.1875 -6.621094 7.625 c -3.367188 1.449219 -7.371094 1.578125 -10.441406 -0.03125 l -0.085938 -0.046875 l -0.101562 -0.007813 c -10.757813 -0.914062 -21.269532 -1.253906 -28.707032 -8.351562 c -0.742187 -0.707031 -1.828124 -2.097657 -2.898437 -3.496094 c -1.066406 -1.394531 -2.117187 -2.792969 -2.914063 -3.617187 l -0.011718 -0.011719 c -4.800782 -4.675781 -7.34375 -12.03125 -10.445313 -18.871094 c -3.039062 -6.710937 -6.71875 -12.917969 -13.765625 -15.425781 c 0.152344 -2.097656 0.347656 -4.972656 1.113282 -7.570313 c 0.75 -2.554687 2.039062 -4.6875 4.246093 -5.605469 z m 0 0" fill-rule="evenodd"/>
        </g>
    </g>
    <g clip-path="url(#H)">
        <g clip-path="url(#I)">
            <path d="m 59.191406 0.917969 l 0.023438 0.003906 l 0.023437 -0.003906 c 6.800781 -0.328125 13.597657 0.53125 20.351563 1.136719 h 0.027344 c 8.023437 0.304687 16.222656 2.019531 23.621093 5.175781 c 2.730469 2.394531 5.121094 6.28125 6.171875 10.316406 c 1.042969 4.023437 0.757813 8.136719 -1.640625 11.15625 c -5.59375 2.796875 -12.429687 1.8125 -18.679687 3.953125 c -3.359375 0.675781 -6.984375 2.347656 -9.375 4.882812 c -2.394532 2.539063 -3.496094 6.042969 -1.636719 10 l 0.003906 0.007813 l 0.003907 0.003906 c 0.707031 1.425781 0.960937 2.613281 0.902343 3.558594 c -0.058593 0.945313 -0.414062 1.65625 -1 2.207031 c -1.171875 1.105469 -3.375 1.535156 -5.851562 1.101563 l -0.1875 -0.035157 l -0.160157 0.097657 c -3.726562 2.265625 -6.511718 1.589843 -9.007812 -0.292969 c -2.496094 -1.878906 -4.589844 -5.050781 -6.457031 -7.71875 l -0.222657 -0.320312 l -0.363281 0.136718 c -1.25 0.472656 -2.222656 0.515625 -2.996093 0.296875 c -0.773438 -0.214843 -1.378907 -0.699219 -1.878907 -1.402343 c -0.996093 -1.410157 -1.484375 -3.710938 -1.640625 -5.9375 l -0.015625 -0.246094 l -0.207031 -0.136719 c -5.757812 -3.8125 -11.984375 -6.828125 -17.480469 -10.847656 l -0.066406 -0.046875 l -0.082031 -0.023438 c -8.71875 -2.738281 -17.96875 -3.5625 -26.898438 -5.042968 c -0.890625 -0.253907 -1.667968 -0.511719 -2.082031 -0.859376 c -0.417969 -0.347656 -0.597656 -0.714843 -0.351563 -1.660156 l 0.023438 -0.078125 l -0.007812 -0.082031 c -0.121094 -1.851562 0.394531 -2.890625 1.304687 -3.597656 c 0.910156 -0.707032 2.300781 -1.0625 3.90625 -1.222656 c 3.210937 -0.3125 7.160156 0.175781 9.785156 -0.746094 l 0.035157 -0.011719 l 0.035156 -0.019531 c 7.5 -3.953125 15.855468 -6.164063 23.589844 -10.007813 l 0.011718 -0.003906 l 0.011719 -0.007813 c 5.632813 -3.15625 12.03125 -3.945312 18.457031 -3.683593 z m 0 0" fill-rule="evenodd"/>
        </g>
    </g>
    <g clip-path="url(#J)">
        <g clip-path="url(#K)">
            <path d="m 3.671875 67.730469 c 2.59375 2.257812 4.816406 4.722656 4.589844 8.300781 l 0.015625 -0.085938 c -1.632813 6.8125 4.042968 14.019532 11.191406 13.152344 l 0.050781 -0.003906 l 0.046875 -0.015625 c 3.78125 -1.273437 7.566406 -1.535156 10.820313 -0.519531 c 3.257812 1.015625 6.007812 3.285156 7.785156 7.207031 l 0.042969 0.097656 l 0.082031 0.070313 c 2.851563 2.496094 3.980469 6.125 3.777344 9.730468 c -0.203125 3.574219 -1.734375 7.082032 -4.125 9.328126 c -3.644531 1.3125 -7.253907 0.773437 -10.851563 -0.46875 c -3.628906 -1.253907 -7.21875 -3.21875 -10.71875 -4.613282 l -0.007812 -0.003906 l -0.011719 -0.003906 c -8.238281 -2.875 -13.941406 -10.882813 -14.386719 -19.535156 v -0.027344 l -0.007812 -0.027344 c -1.285156 -7.734375 -1.289063 -15.375 1.707031 -22.582031 z m 0 0" fill-rule="evenodd"/>
        </g>
    </g>
    <g clip-path="url(#L)">
        <g clip-path="url(#M)">
            <path d="m 66.113281 88.144531 c 2.824219 1.152344 5.09375 3.382813 6.402344 6.136719 c 1.035156 2.234375 2.242187 4.335938 2.773437 6.628906 l 0.003907 0.015625 l 0.003906 0.011719 c 1.855469 6.234375 3.757813 12.859375 1.925781 19.152344 l -0.023437 0.078125 l 0.003906 0.085937 c 0.109375 2.152344 -0.578125 4.59375 -2.515625 5.570313 c -1.460938 0.6875 -3.066406 0.648437 -4.59375 0.128906 c -1.53125 -0.519531 -2.964844 -1.527344 -3.992188 -2.710937 l 0.03125 0.042968 c -1.28125 -1.859375 -2.933593 -3.34375 -4.460937 -4.871094 c -4.078125 -4.035156 -8.433594 -8.300781 -9.644531 -13.929687 c 3.136718 -3.367187 3.546875 -8.085937 5.722656 -11.589844 l 0.007812 -0.011719 l 0.007813 -0.007812 c 1.65625 -2.941406 5.015625 -4.484375 8.351563 -4.730469 z m 0 0" fill-rule="evenodd"/>
        </g>
    </g>
    <g clip-path="url(#N)">
        <g clip-path="url(#O)">
            <path d="m 69.195312 60.636719 l -0.359374 0.175781 c -1.3125 0.640625 -1.957032 1.867188 -2.734376 2.664062 l -0.171874 0.179688 l 0.039062 0.25 c 0.300781 1.875 0.570312 4.96875 1.453125 7.148438 c 0.445313 1.085937 1.0625 2.011718 2.054687 2.320312 c 0.941407 0.292969 2.050782 -0.109375 3.289063 -1.136719 c 0.652344 0.144531 1.230469 0.226563 1.675781 0.066407 c 0.519532 -0.1875 0.847656 -0.695313 0.894532 -1.203126 c 0.089843 -1.019531 -0.46875 -2.199218 -1.214844 -3.519531 c -1.492188 -2.640625 -3.90625 -5.671875 -4.675782 -6.632812 z m 0 0" fill-rule="evenodd"/>
        </g>
    </g>
    <g clip-path="url(#P)">
        <g clip-path="url(#Q)">
            <path d="m 26.402344 32.757812 c 0.019531 0.011719 0.050781 0.019532 0.089844 0.039063 c 0.082031 0.039063 0.195312 0.09375 0.304687 0.148437 c 0.21875 0.113282 0.402344 0.210938 0.460937 0.238282 c 1.050782 0.542968 2.035157 1.316406 3.402344 1.617187 c 0.410156 0.089844 0.609375 0.132813 0.761719 0.148438 c 0.074219 0.011719 0.125 0.039062 0.304687 -0.015625 c 0.019532 -0.007813 0.039063 -0.039063 0.0625 -0.050782 c 0.046876 0 0.203126 0.003907 0.566407 0.046876 c 1.472656 0.175781 3.402343 0.773437 4.949219 1.191406 c 0.292968 0.082031 0.617187 0.195312 0.996093 0.253906 c 0.191407 0.03125 0.332031 0.003906 0.417969 -0.007812 c 0.085938 -0.007813 0.105469 0.003906 0.078125 -0.007813 c 0.5625 0.175781 1.160156 0.953125 1.808594 1.5625 c 0.613281 0.578125 1.019531 0.914063 1.308593 1.257813 c 0.285157 0.347656 0.496094 0.722656 0.75 1.503906 c 0.09375 0.296875 0.195313 0.503906 0.214844 0.644531 c 0.121094 0.824219 0.265625 1.597656 0.125 2.25 c -0.457031 2.113281 -2.195312 4.066406 -3.9375 5.414063 c -0.359375 0.277343 -0.660156 0.535156 -0.953125 0.664062 c -1.816406 0.792969 -3.519531 0.808594 -5.566406 0.808594 c -1.289063 0 -2.550781 0.074218 -3.539063 -0.429688 c -0.6875 -0.351562 -1.085937 -0.953125 -1.417968 -1.714844 c -0.328125 -0.765624 -0.5625 -1.667968 -0.9375 -2.503906 c -0.402344 -0.890625 -0.964844 -1.636718 -1.324219 -2.386718 c -0.234375 -0.496094 -0.335937 -1.035157 -0.570313 -1.660157 c -0.28125 -0.761719 -0.683593 -1.527343 -0.777343 -2.152343 c -0.023438 -0.15625 0.035156 -0.429688 0.003906 -0.808594 c -0.113281 -1.53125 -0.269531 -3.046875 -0.328125 -4.550782 c 0.027344 -0.09375 0.085938 -0.273437 0.167969 -0.5 c 0.046875 -0.132812 0.09375 -0.265624 0.132812 -0.355468 c 0.003907 -0.011719 0.003907 -0.015625 0.007813 -0.023438 c 0.699218 -0.5 1.59375 -0.746094 2.4375 -0.621094 z m 0 0" fill-rule="evenodd"/>
        </g>
    </g>
    <g mask="url(#aJ)">
        <g clip-path="url(#aN)">
            <g mask="url(#aK)">
                <g clip-path="url(#aM)">
                    <path d="m 128 80.640625 v 47.359375 h -128 v -47.359375 z m 0 0" fill="url(#aL)"/>
                    <path d="m 13.308594 80.640625 l 47.355468 47.359375 h 21.214844 l -47.359375 -47.359375 z m 42.421875 0 l 47.363281 47.359375 h 21.214844 l -47.363282 -47.359375 z m 42.429687 0 l 29.839844 29.839844 v -21.210938 l -8.628906 -8.628906 z m -98.160156 7.90625 v 21.214844 l 18.238281 18.238281 h 21.214844 z m 0 0"/>
                </g>
            </g>
        </g>
    </g>
</svg>
