<?xml version="1.0" encoding="UTF-8"?>
<svg height="16px" viewBox="0 0 16 16" width="16px" xmlns="http://www.w3.org/2000/svg" xmlns:xlink="http://www.w3.org/1999/xlink">
    <filter id="a" height="100%" width="100%" x="0%" y="0%">
        <feColorMatrix in="SourceGraphic" type="matrix" values="0 0 0 0 1 0 0 0 0 1 0 0 0 0 1 0 0 0 1 0"/>
    </filter>
    <mask id="b">
        <g filter="url(#a)">
            <path d="m 0 0 h 16 v 16 h -16 z" fill-opacity="0.3"/>
        </g>
    </mask>
    <clipPath id="c">
        <path d="m 0 0 h 1024 v 800 h -1024 z"/>
    </clipPath>
    <mask id="d">
        <g filter="url(#a)">
            <path d="m 0 0 h 16 v 16 h -16 z" fill-opacity="0.05"/>
        </g>
    </mask>
    <clipPath id="e">
        <path d="m 0 0 h 1024 v 800 h -1024 z"/>
    </clipPath>
    <mask id="f">
        <g filter="url(#a)">
            <path d="m 0 0 h 16 v 16 h -16 z" fill-opacity="0.05"/>
        </g>
    </mask>
    <clipPath id="g">
        <path d="m 0 0 h 1024 v 800 h -1024 z"/>
    </clipPath>
    <mask id="h">
        <g filter="url(#a)">
            <path d="m 0 0 h 16 v 16 h -16 z" fill-opacity="0.05"/>
        </g>
    </mask>
    <clipPath id="i">
        <path d="m 0 0 h 1024 v 800 h -1024 z"/>
    </clipPath>
    <mask id="j">
        <g filter="url(#a)">
            <path d="m 0 0 h 16 v 16 h -16 z" fill-opacity="0.05"/>
        </g>
    </mask>
    <clipPath id="k">
        <path d="m 0 0 h 1024 v 800 h -1024 z"/>
    </clipPath>
    <mask id="l">
        <g filter="url(#a)">
            <path d="m 0 0 h 16 v 16 h -16 z" fill-opacity="0.05"/>
        </g>
    </mask>
    <clipPath id="m">
        <path d="m 0 0 h 1024 v 800 h -1024 z"/>
    </clipPath>
    <mask id="n">
        <g filter="url(#a)">
            <path d="m 0 0 h 16 v 16 h -16 z" fill-opacity="0.05"/>
        </g>
    </mask>
    <clipPath id="o">
        <path d="m 0 0 h 1024 v 800 h -1024 z"/>
    </clipPath>
    <mask id="p">
        <g filter="url(#a)">
            <path d="m 0 0 h 16 v 16 h -16 z" fill-opacity="0.3"/>
        </g>
    </mask>
    <clipPath id="q">
        <path d="m 0 0 h 1024 v 800 h -1024 z"/>
    </clipPath>
    <mask id="r">
        <g filter="url(#a)">
            <path d="m 0 0 h 16 v 16 h -16 z" fill-opacity="0.5"/>
        </g>
    </mask>
    <clipPath id="s">
        <path d="m 0 0 h 1024 v 800 h -1024 z"/>
    </clipPath>
    <mask id="t">
        <g filter="url(#a)">
            <path d="m 0 0 h 16 v 16 h -16 z" fill-opacity="0.4"/>
        </g>
    </mask>
    <clipPath id="u">
        <path d="m 0 0 h 1024 v 800 h -1024 z"/>
    </clipPath>
    <mask id="v">
        <g filter="url(#a)">
            <path d="m 0 0 h 16 v 16 h -16 z" fill-opacity="0.4"/>
        </g>
    </mask>
    <clipPath id="w">
        <path d="m 0 0 h 1024 v 800 h -1024 z"/>
    </clipPath>
    <mask id="x">
        <g filter="url(#a)">
            <path d="m 0 0 h 16 v 16 h -16 z" fill-opacity="0.5"/>
        </g>
    </mask>
    <clipPath id="y">
        <path d="m 0 0 h 1024 v 800 h -1024 z"/>
    </clipPath>
    <mask id="z">
        <g filter="url(#a)">
            <path d="m 0 0 h 16 v 16 h -16 z" fill-opacity="0.5"/>
        </g>
    </mask>
    <clipPath id="A">
        <path d="m 0 0 h 1024 v 800 h -1024 z"/>
    </clipPath>
    <g clip-path="url(#c)" mask="url(#b)" transform="matrix(1 0 0 1 -200 -376)">
        <path d="m 562.460938 212.058594 h 10.449218 c -1.183594 0.492187 -1.296875 2.460937 0 3 h -10.449218 z m 0 0" fill="#2e3436"/>
    </g>
    <g clip-path="url(#e)" mask="url(#d)" transform="matrix(1 0 0 1 -200 -376)">
        <path d="m 16 632 h 1 v 1 h -1 z m 0 0" fill="#2e3436" fill-rule="evenodd"/>
    </g>
    <g clip-path="url(#g)" mask="url(#f)" transform="matrix(1 0 0 1 -200 -376)">
        <path d="m 17 631 h 1 v 1 h -1 z m 0 0" fill="#2e3436" fill-rule="evenodd"/>
    </g>
    <g clip-path="url(#i)" mask="url(#h)" transform="matrix(1 0 0 1 -200 -376)">
        <path d="m 18 634 h 1 v 1 h -1 z m 0 0" fill="#2e3436" fill-rule="evenodd"/>
    </g>
    <g clip-path="url(#k)" mask="url(#j)" transform="matrix(1 0 0 1 -200 -376)">
        <path d="m 16 634 h 1 v 1 h -1 z m 0 0" fill="#2e3436" fill-rule="evenodd"/>
    </g>
    <g clip-path="url(#m)" mask="url(#l)" transform="matrix(1 0 0 1 -200 -376)">
        <path d="m 17 635 h 1 v 1 h -1 z m 0 0" fill="#2e3436" fill-rule="evenodd"/>
    </g>
    <g clip-path="url(#o)" mask="url(#n)" transform="matrix(1 0 0 1 -200 -376)">
        <path d="m 19 635 h 1 v 1 h -1 z m 0 0" fill="#2e3436" fill-rule="evenodd"/>
    </g>
    <g clip-path="url(#q)" mask="url(#p)" transform="matrix(1 0 0 1 -200 -376)">
        <path d="m 136 660 v 7 h 7 v -7 z m 0 0" fill="#2e3436"/>
    </g>
    <g clip-path="url(#s)" mask="url(#r)" transform="matrix(1 0 0 1 -200 -376)">
        <path d="m 199 642 h 3 v 12 h -3 z m 0 0" fill="#2e3436"/>
    </g>
    <path d="m 8 1.003906 c -1.867188 0 -3.730469 0.660156 -5.226562 1.953125 c -0.144532 0.125 -0.292969 0.25 -0.429688 0.386719 c -3.117188 3.117188 -3.117188 8.195312 0 11.3125 c 0.320312 0.332031 0.824219 0.402344 1.21875 0.171875 c 0.398438 -0.230469 0.589844 -0.703125 0.460938 -1.144531 l 0.796874 -0.792969 l -0.707031 -0.707031 l -0.695312 0.691406 c -0.808594 -0.953125 -1.296875 -2.132812 -1.402344 -3.375 h 0.984375 v -1 h -0.984375 c 0.105469 -1.242188 0.59375 -2.421875 1.402344 -3.375 l 0.695312 0.691406 l 0.707031 -0.707031 l -0.695312 -0.6875 c 0.953125 -0.808594 2.132812 -1.300781 3.375 -1.40625 v 0.984375 h 1 v -0.984375 c 1.242188 0.105469 2.421875 0.59375 3.375 1.402344 l -0.691406 0.691406 l 0.707031 0.707031 l 0.691406 -0.691406 c 0.808594 0.953125 1.296875 2.132812 1.402344 3.375 h -0.984375 v 1 h 0.984375 c -0.09375 1.132812 -0.507813 2.210938 -1.195313 3.117188 c -0.042968 -0.09375 -0.097656 -0.179688 -0.183593 -0.257813 l -2.785157 -2.53125 c 0.117188 -0.261719 0.179688 -0.542969 0.179688 -0.828125 c 0 -1.105469 -0.894531 -2 -2 -2 s -2 0.894531 -2 2 s 0.894531 2 2 2 c 0.246094 0 0.492188 -0.046875 0.722656 -0.136719 l 2.871094 2.609375 c 0.097656 0.089844 0.214844 0.140625 0.34375 0.167969 l 0.042969 0.046875 c -0.125 0.4375 0.0625 0.90625 0.460937 1.136719 c 0.394532 0.226562 0.894532 0.160156 1.214844 -0.167969 c 3.117188 -3.117188 3.117188 -8.195312 0 -11.3125 c -1.5 -1.5 -3.535156 -2.34375 -5.65625 -2.339844 z m 0 0" fill="#2e3436"/>
    <g clip-path="url(#u)" mask="url(#t)" transform="matrix(1 0 0 1 -200 -376)">
        <path d="m 209.5 144.160156 c 0.277344 0 0.5 0.222656 0.5 0.5 v 1 c 0 0.277344 -0.222656 0.5 -0.5 0.5 s -0.5 -0.222656 -0.5 -0.5 v -1 c 0 -0.277344 0.222656 -0.5 0.5 -0.5 z m 0 0" fill="#2e3436"/>
    </g>
    <g clip-path="url(#w)" mask="url(#v)" transform="matrix(1 0 0 1 -200 -376)">
        <path d="m 206.5 144.160156 c 0.277344 0 0.5 0.222656 0.5 0.5 v 1 c 0 0.277344 -0.222656 0.5 -0.5 0.5 s -0.5 -0.222656 -0.5 -0.5 v -1 c 0 -0.277344 0.222656 -0.5 0.5 -0.5 z m 0 0" fill="#2e3436"/>
    </g>
    <g clip-path="url(#y)" mask="url(#x)" transform="matrix(1 0 0 1 -200 -376)">
        <path d="m 229.5 143.160156 c -0.546875 0 -1 0.457032 -1 1 c 0 0.546875 0.453125 1 1 1 s 1 -0.453125 1 -1 c 0 -0.542968 -0.453125 -1 -1 -1 z m 0 0" fill="#2e3436"/>
    </g>
    <g clip-path="url(#A)" mask="url(#z)" transform="matrix(1 0 0 1 -200 -376)">
        <path d="m 226.453125 143.160156 c -0.519531 0 -0.953125 0.433594 -0.953125 0.953125 v 0.09375 c 0 0.519531 0.433594 0.953125 0.953125 0.953125 h 0.09375 c 0.519531 0 0.953125 -0.433594 0.953125 -0.953125 v -0.09375 c 0 -0.519531 -0.433594 -0.953125 -0.953125 -0.953125 z m 0 0" fill="#2e3436"/>
    </g>
</svg>
